<mxfile host="app.diagrams.net" modified="2023-11-21T18:12:22.344Z" agent="Mozilla/5.0 (Windows NT 10.0; Win64; x64) AppleWebKit/537.36 (KHTML, like Gecko) Chrome/119.0.0.0 Safari/537.36 Edg/119.0.0.0" etag="KTKW_PL3Rt_TNUiD1AEF" version="22.1.3" type="device" pages="2">
  <diagram name="Страница — 1" id="o3sYmgAIau1fM3dsohi6">
    <mxGraphModel dx="2320" dy="1200" grid="1" gridSize="10" guides="1" tooltips="1" connect="1" arrows="1" fold="1" page="1" pageScale="1" pageWidth="3300" pageHeight="2339" math="0" shadow="0">
      <root>
        <mxCell id="0" />
        <mxCell id="1" parent="0" />
        <mxCell id="hStPTp5JlyxzYv1hSWJD-20" value="" style="shape=image;imageAspect=0;aspect=fixed;verticalLabelPosition=bottom;verticalAlign=top;image=data:image/png,iVBORw0KGgoAAAANSUhEUgAAA5AAAALoCAYAAAAOSho8AAAAAXNSR0IArs4c6QAACfl0RVh0bXhmaWxlACUzQ214ZmlsZSUyMGhvc3QlM0QlMjJhcHAuZGlhZ3JhbXMubmV0JTIyJTIwbW9kaWZpZWQlM0QlMjIyMDIzLTExLTIxVDE4JTNBMTAlM0E1OC4zMzlaJTIyJTIwYWdlbnQlM0QlMjJNb3ppbGxhJTJGNS4wJTIwKFdpbmRvd3MlMjBOVCUyMDEwLjAlM0IlMjBXaW42NCUzQiUyMHg2NCklMjBBcHBsZVdlYktpdCUyRjUzNy4zNiUyMChLSFRNTCUyQyUyMGxpa2UlMjBHZWNrbyklMjBDaHJvbWUlMkYxMTkuMC4wLjAlMjBTYWZhcmklMkY1MzcuMzYlMjBFZGclMkYxMTkuMC4wLjAlMjIlMjBldGFnJTNEJTIyaXdIclVFUkFQV1dNb3J5VnBRR1AlMjIlMjB2ZXJzaW9uJTNEJTIyMjIuMS4zJTIyJTIwdHlwZSUzRCUyMmRldmljZSUyMiUyMHBhZ2VzJTNEJTIyMiUyMiUzRSUzQ2RpYWdyYW0lMjBpZCUzRCUyMlkweTNjS3YtNEEyYUlNSElhMGtpJTIyJTIwbmFtZSUzRCUyMlBhZ2UtMSUyMiUzRTdadGRtNW82RUlCJTJGRFplN0QwbVVqMHNFOXVPY3F1ZHgyYmEzVkxMS2N4QThHS3ZiWDk4UUNJSkpXOW9TcmU3eEFuRUlBZDZaRERQSnFDRjN0YiUyRlB3JTJGVnluRVU0MGFBZTdUWGthUkFpWU9yMHE1QzhsaEtJOUVxeXlPT29sSUdENENuJTJCZ2lzaGI3YU5JN3hwTlNSWmxwQjQzUmJPc3pURmM5S1NoWG1lN2RyTlhyS2tmZFYxdU1DQzRHa2VKcUwwUXh5UlpTbTFodnBCJTJGb0RqeFpKZkdmRG5XNFc4Y1NYWUxNTW8yelZFeU5lUW0yY1pLZmRXZXhjbkJUM09wVHp2N2h0SDZ4dkxjVXE2bkFETEV6Nkh5Ylo2dHVxJTJCeUN0JTJGMkR6YnBoRXUydXNhR3UyV01jRlA2M0JlSE4xUiUyRlZMWmtxd1MlMkJndlFYZkg2MVMxOXhqbkIlMkI0YW91cDk3bkswd3lWOXBrJTJCcm96WkRUcXN6akJobVZZSGVBYlhOYldEWkFtNE5LR0ZZS1h0UzlIeGpRblFxREhBbTZLaVMxNmYwT2tzRUZJSUhXS1lsWXc1NlJiRWllJTJGWXZkTE1seUtvbndTN2hONkEyUFhyS1VWQTRRd0ZOYWs2VU1uU0dnZTM3eTZaZnVCQnB5Qkl6MHFjajNXS1ZaaWd0UWNaSWNpY0lrWHFUMDU1eXl3bFElMkJLaGpGMUkwNzFZRlZIRVhGWmFUS2FhdnZiSG93SkhwQWZhakJ2R0FMSHNBTzVCU2FzQ1d3YzU2RGglMkJtTTJhJTJCdVVWd08yNDdLcmFsUlFsWlRBdGpXWjNMSXRpYVRXR3pyVlB0bFYzYlpJVVZpTUtDZmNycTNJQXlsOGQlMkIyQ0JWR0R4bGhRZFpEdGxuSGhCbyUyQktYQ053NVNHSXFzQ2ROMVN3ZmhLOEF2NTgwWlhKeHNCTWh2cEk0cXdiTUZFUENmd1N3T0I0QmFBVyUyRnFOM293MmFxamYxUVlBYXJSaDY0STIlMkZwbE4lMkYlMkZMZDREQmlEOE5NJTJGMzljJTJGZFM0QWhKTm1vcGVXellRTkRuejN6TXRHdUdxSUpCJTJCMnF6Wm8lMkJySElqaDRlOE1PMmJmRFkzV1pYTlFhZW9vY29kMTNpdGsxem1qcVNpdW1HSXBQVDFoQkYyOEdoeUpSTHZzdG9uMW5xS2VNM0VSeVNEUkdaZVQ2VG1UUFMwN2lkNVdSdSUyQlI4VnlCWHAlMkIlMkJuSUNlbXU1ZER6amglMkJkOGpjbkM0aDEwdWFaWXNwNm9mcDdPJTJGSHlmMXBDQjY5Mm5zeFJkQ0JLTEJVMmFLWXQzb3o1eTY0SXB5U3Q0azZuR0tPTiUyRlBkNlhqc1R6emZ1eUtvc2dCZkZkVGFjelJ6dGVmUnUwZlhDUjZuayUyQnVoS25zSkthUXE1azJYaXRMc01wTXdrS1F6JTJGWUE4Vno1ekFwQXk1NmtPNUxuU21CT0FsRGxNZFNEUGxkV29CeW4xa2VwQWlrbk96SGM4ZnliZ3ZObzFxUzYlMkJWYllpMVE5JTJGTVZWaWMlMkJadmhqNFVGd1NoWks1T25RTEVnSll2T20zV1lkclNBcCUyRjNMakRjYkJpSGNtbGp2ZGVhSzFOOHJjclJlVmYwTnNyZSUyQkNMV2hXVER2eDU0OUpJTjF6TzBEZTI0MDBuZ2YxUzBiUDVIem1oM1VvSXBpNko3VVlFa2ltWkxSNFp5SzRaQW5OTyUyQlk1JTJCZUVwUXVCVFhTNWRLZXJQc01jYlZxcHNEOE1WS28wR0dJZ2VGazZ2bVhVV1F6T0tGWnE2cXhxWFAlMkJwZ2FleDZPTGlDaDdVa0NYTVdEWXF2aWZZJTJGSjlvTmFwSU5RRzJyVjRyNThYb0RnbEh6d0c3OTZZVDBId25ENUZuTVQlMkY2U0FkZmlOSVp4VXdBMWFQaGxnTm1zZnIwYWpFNEJWcWRQOU9hMWJKOE5QcWtyYXl5TTF0bktEem8zUUxHNFZ3WHFQc2JWaDBXalFHdkM2dVBzVnFkT2dMYlhpbFhOV2IzMmc4bEZ5OSUyQmRpZE1wTHJ0V1I0U0RDNU81SE1YU0ZaTmM4dkZJZlFuNGUlMkZOckJqalglMkJJSVA4ciUzQyUyRmRpYWdyYW0lM0UlM0NkaWFncmFtJTIwaWQlM0QlMjJzdG1kaEhnbGVfc0w0SGFqSkJqSCUyMiUyMG5hbWUlM0QlMjIlRDAlQTElRDElODIlRDElODAlRDAlQjAlRDAlQkQlRDAlQjglRDElODYlRDAlQjAlMjAlRTIlODAlOTQlMjAyJTIyJTNFblpLeERvSXdFSWFmcG52dEVhS3JGWFZ4WW5CdWFJVW1oU09sQnZUcEJRdGl3MEEwYWRMayUyQjclMkZjWFM4bHdNdnVaRVZkWEZBcVF4aVZIWUVEWVd3VHM2aSUyRkJ2THdaQnRSRDNLcjVTak5JTlZQTmNKSnUydXBta0IwaU1icE9vUVpWcFhLWE1DRXRkaUcyZzFOMkxVV3VWcUFOQk5tU2E5YXVzSlRBRXJuNEt4MFhveXQlMkIyam5rMUpNOXFnMmhaRFlmaUZJQ0lzSmcwNFEySk9CaFFlNFJYU3IyaVNYSFZkbTJQNjBXTiUyRjMlMkJIJTJCQnolMkJPdHF0eHZOWUgzMXNyNGJ5ZjRPWkM4QUElM0QlM0QlM0MlMkZkaWFncmFtJTNFJTNDJTJGbXhmaWxlJTNF+O8ZgAAAIABJREFUeF7s3XusNVV9P+Ahv9a2FsESWyGAtdAqJRUv1LZQYi8Itn+04RIoVkWgFhCBaBCCINiCF4JSE0QuXhABW5SoNE1jK6JWEax4QxpqjVAbQNA/UBDSVmPeX74T1+k6884+e59zZu2z95rnJMaXc/ZeM+tZa/bsz6w1a3Zo/BAgQIAAAQIECBAgQIAAgRkEdpjhNV5CgAABAgQIECBAgAABAgSaCJDbOBAgQIAAAQIECBAgQIAAgSkCO7QBcts2GXKjXWWHHXYIwI2+3fsIECAwUSA+X+bx4zNsHsq2sVUCztNbJb+c2x1bfxlbfZezVy7OXv/ke4kAudkmceBtVtD7CRCYJCBA6hsENi/gPL15wzGVMLb+Mrb6jqkvl6irADmQqgNvIEjFECCwnYAAqVMQ2LyA8/TmDcdUwtj6y9jqO6a+XKKuAuRAqg68gSAVQ4CAAKkPECgg4DxdALXiIsfWX8ZW34q77lyqJkAOxOzAGwhSMQQICJD6AIECAs7TBVArLrKvv7z1rW9tzjrrrFW1Puyww5prrrmm2XnnnVf9/pWvfGXz0EMPrfztIx/5SHPkkUf2in34wx9u7rnnnu3KjheffPLJzRVXXFFculvf7v5efPHFzZlnnrlqP9Z6zX333dfWd//991+1/2F47733NhdddFFz3HHHNTfddNN2dQvTN73pTe3f77jjjlV/33vvvZvrrruuefDBB1uv+PcBBxzQvub2229vXvaylzWxrzfffHNz5ZVXblf285///Ca899xzz+KmNW9AgByodZ2YBoJUDAECAqQ+QKCAgPN0AdSKi5wUIG+77bZVgbEbFFOQiRATPxFyUsBJXPGe+MmDYQSrbtnz5M3rG8EwD2ePPPJIG+YOPPDAlRAZ+3vjjTeuhLH0ml133bWtVwqQDz/88KqQlwJkXvcIfqeffnpz6aWXrlil95999tnNEUcc0UuRm8ULuvsYv5ulnHk617ItAXKglnRiGghSMQQICJD6AIECAs7TBVArLnLWANkXUCLYpJ8YbeuOIC5ygOwLiykUn3/++c3VV1/dVu2EE05oLrjgglXhOCzS7/fYY4/23xEoH3vssZXQPWSAzPc19qkvgHfbJ9/HbrCvuDsPXjUBciDSvg+avqtSk66ErHdIv3tFpu+AnGVqQXdqwKSpGF2mqFt3asC8pwWkD458+kPfFIuBmrhIMd2rfPlGZpk+UmSnFLpwAvNcRCeO7b322mvlKnOaEnTSSSet+l1+tbh7LHY/C1IZMUUr/8mnZvV9oYrfxTSkmKJ07bXXruxX3z5Fud19r+EzYuE64xLvUN95Op2T1zoXTuq/3X7eHYFJVH3vT9Pw0hfYvnNqvD+d0/r+3i1jiZtmIXd91gDZ/eyJfnDqqac2p5xyShMhKn1W5lMmFzlA9o0Gdhsovp/E53J36m4e6I455pg2QMa01wjQMbU0RhKHDJAp2EbZ8ZNPZ037bASyzOElQA7k2v2giQOwb/rCtAC50SH97gE569SCPIhOuurURzTpw6/vSttAxNsV89rXvradX7+sV5DSSSYqtt9++626t2CW6SOlXJW7eALzDJDdz5Loi295y1uaffbZp7nsssva+3zyLw+PPvpoexweddRRK324239nmZ7U/UzpXoDLw2H6Qr7LLrusupclf03f/Te+SCxe357nHq0VINc6F87yhTrqkY6L+HdMxUuBoe/93WOk75ya2yxi4Jhn223FtjYaIKO9L7/88pXPy2i7Qw45ZNU0zEnt2b2/Muod9+tNmsI5pEuqb+x/GmmcdJ/gpACZh+kUIGOUMu5XjHseoy433HBDew/krN93pw10pO+use2+e1F97g/ZS/6vrIkBctIHZvcKb/eG4nwEqO9m49h0uuq8npuR0y73XeGbdOVuniNi3Q+aSdMX5hEgJw3Pd6cWxJe+tUYy1/oQ6fvwyz9QbrnlllU3i6cPwPxKbOoHaTvPfvazm0suuaTpXlXN+0n6W1zVe+9739t85zvfWRkJzfted+Qhth8/3RvYo4/EB/uTn/zklS+/qY+feOKJK1cRI6Tmx0SUlU4QUdf4YIwPrviiHVcdu6/vC7npJBNXzqKOMS0kPqxnmT7i5u8yH4iLWuo8A2T3uI/jIS5wxPGdpiulz7e4stx3NTkc89/Pcj7JP1P67gXqBsj4grPjjju206PSF5H8NZPuJ5q0v4va9vZrOIFZA+Ss/be7ZykoxKh5dxS/e39X+qId/x/9dyMBcpYv+sPpja+kWQNk95zd9922uxDOIl4QyANkX3/Ne8B6A2R8B0qfz1HOegLkWvdApmP14x//eLt7hx566HYL/QiQZY7dTQXI7ihXaqR0JXraDcGTviTkq1Z1qz3pCl+8bis7Sf5Bs9b0hXkEyFmnFnQD5GZHINMH4rHHHrvqZujUznFFNj6UIjAdfPDBK+Es2i5+F0EuTqR5v0jhLK2YlW8j3pOm1XVd89GLKCO/Gbzrk38Zzq+edQNkPp0uBcg3v/nNzTnnnNOGxn333XdV4Mxf3xcg8+3mVyhnvdpd5iNBqYsoMM8AmX9+5X06ppDGMRrHbixUkI7j9O/uFfI4ztIV5/vvv3/qAgnp2I4v3vnCDKk9+gLkhRde2Jx33nkrwTa/+NO3mMIitq19mp/ArAGyey6c5TM5zkHpS3f093wEatL783NRfElOYbJPZBEDx/xabmu2NGuAzL9/xEXp7nervov6i9ieqb6TvgvmfTxaZNZ7INOFx3QcxGyWuPg36wjkWgGye2G/L/huZTbYmp47n61uKkBOOwDe9a53rbmiVF+AnNbQk67w9QXIed4om3/QrDV9YagA2R3Sj/qnK1yzXhmKD7luObMuF9036jvp/sm+/UkfUPEldLfddlv15XKtdkujBxFSu1MsuveRpvn23Q/DjQTImH7x0Y9+tD0qIyymABlXu+Km7fggzL94d1/fDZD5a+NvsU9x1TrKcVV5Ph9+y7SVeQbI/CLKQQcdtGqkPfpoXDBJJ+mddtppJUx2A2Tej+MLdRyP3Xsg81kD+WdK3+yRvgAZo/YxHSotnBBfNCKAxsWfbrDNy5/1Xu9l6iP2dbrAeu6BzM+Fs9zDm3+Gdz/fZw2Q3XUF8tk4fefcec6ymq5b3ytmDZDdC9bpwlmaKdQXyKZ9f+4+EmQeunl9J91Gk8/4mOVWqW7ITKOz3e+as9zm0DXoDlrF3zeSK+ZhW+M2NhUg0yIfk07GGxmBzL+8dJ83s9YVvr4AOc8Gyw+8taYvDBUg15p6up4AmcqZ5Qpr7jnLdJv8ZJj3kdRvulNY0xTOPEDGCEj3OUHxvgiQ+RXe2Ld0Ao8vuN0rgPmXz65P97+7U1jji2/cmJ3+PwXI+O9nPetZK3Pu05eGvtd3A2TfF5L0ZaBvtGaefdm2Fk9g3gEyHUsx4hihLz6L8ynXcTzE/ZDxM2kEshsg8yvD+ehk+pIVx92XvvSl9h6ZGNnvzkSZFCDzEJumDqYAmS85n1p1rc/HxWt5ezSkwCwjkH3nwlnOj30BL10gmfT+/DvSekYg1zNbaEi/sZU1KUCu9RzISd+NumFrUoDsuwdyXhe8uvXtLuTXN8DQfU1+UbBvMGCthaYmPcajb8AkzkHp1qT8vse+8q3CWubI3VSAjF3q3muWd/RJ90Cm++EmBcz8i0Je7bWu8C1KgOwLiH2BKI2Opfr1fZis54pMfl/PRu+B7H7ArdXl1gqQ3S+Hk76wpXaOUY78gyOv96233rpqFDvVMx8FSV9ANzoCmS5a5IE3PgTTFNa4Chz3WsZVxbSyWrwnAmwKi+nLdPy97/WzPANq2vS7/AKKeyDLfCAuaqnzDpDR1yLExdLrhx9+eLuAQ3zWx5fcuB8yfp8u8G30Hsj8qn1cbc8/UyZdsU/3lXVH6dNnzu67777ynLJJ5xcBclF7efn9miVAplGMfBr1tAA5KXSmWTKTLgrmfX6Wi7Kxb2naX7oIGeeqeSywUr51Fm8Lff1l8fZyuD0aW32HkxtnSZsOkF22/ENwIyOQa11ZW+sK36IEyL4r6906db84TToRbDRA9p0Au1dl+oLueq5qzhog0+hA7NOb3vSm5txzz11ZnS4PkPn9jHm/yadBp9Ue999//5VFB9IXym5o7k4pWeseyL4+nE+Du+uuu9oRyPx+sBQgIzjGPsZPGvXoe30eINcahU5T8br3bU66alf6Yyvta/cKYN+qcN197F5cyvc1LjRFf4jRq27ZsyxNv9aFq7SdWaewT3rdtKnE3SuvuUnull9U644851dr8791p6bNO0Cm0fQIivlqkrHy8eOPP97OAEh9um8aUXf60yyfZd3PlO7n4qQRyHwEMy4CJdO0X+nzIj9HRNDsW62v9PGk/K0VmDVArvceyGnT5rq3aYRC9xhZb4BM5/mtfPD81rZm+a2PLVCNrb7le1DdW5gYINcaeo5pQd0FRhJTfnV3yHsgp13hiy8R0+6fLNmU6cBbz/SFfMSr7wv5LF+6Up36RgGmTS3oW4U1P6lF2ZOWcl7rZJd/uY8wcMYZZ7Qny3S/Upqikb5Y33333e124qbqeKZj/uU5/yIevz/++OObWG0rvvzFTz69ddoqrOkq7bQRiEkjgfl9LXmAjGAb8/yjXjEqmabNde+DyY+R7j0S8bfuF+ZZpo+U7NOTLspMuuCRXON9eehIdZs0PWXaCmt9dcwXIOq78JH6zcMPP9z7XKg8ZMZx0H1dqmP3MRH5+/Jne+UXjtJFk9QP0rGSj2B3V+ntLsDU/UI67wA56ctp3wWyeG030Pc9B7JvcYN81kOMeMZPvrBCmsUSn4/5ypZ94b4vyEZ53QuPy/as2NLH+JjKnzVAdgNe/HffPbxxfov+mn/u557pQmbc9hD/zu8BnvU5kGnaYN85d1KfH1Oblqzr2ALV2Opbsu+MoeyJAbJvxKN7xaz7Jaf7no2MQHZH5/KA1L3S1jevuS8UzaMhHXgbV5420rPxkr1zswKzjJamm/3j2I175rpL2G80QM46gtgNO3FBIr7spQsXaQW4rkUKid3Xpc+5/MLHtCnDuVOEp3zhgGmhq+8+ve4xsRUBcrN9x/sJLJqA8/Sitchi78/Y+svY6rvYvW/x925igOy7qtw3tax7n2N+k+2keyDTyFOMUK51M3LimzatNS22kKY4phGN9XwB3WxTOfA2LihAbtyu9DsnBchum01b4Go9o+kbqdOkq/N9y4x3y9/oFNa8nLx+8ft85H7S/VNrzZhYhBHIjbSD9xBYZAHn6UVuncXbt7H1l7HVd/F63HLt0ZoBcrmqsrV768DbWn9bLyMwa4CctsDVWgGyew/kelecmzTCN+sFpM0GyL7HxORTlCcFyLWmpIVJPq3dCGSZ/q3UcQk4T4+rvTdb27H1l7HVd7P9Y+zvFyAH6gEOvIEgFbNQApMCZDe0TVvgqtQIZHdafY43jwDZN9W/OzrbV/dJU/XT/nfdBciFOizszJIKOE8vacNt0W6Prb+Mrb5b1K2q2awAOVBTOvAGglTMQgnMcg9k3HPYXSBllhC12UWvpj12pnSAnLSARXe7fQvs5A9j7mvw7qimALlQh4WdWVIB5+klbbgt2u2x9Zex1XeLulU1mxUgB2pKB95AkIpZKIG+kNddhXXaEvax+u3QI5CTpq3OawRyrfuy+x7bE/sVqzVOWr24Gzq7XgLkQh0WdmZJBZynl7Thtmi3x9ZfxlbfLepW1WxWgByoKdOBlx4vkBYcisdNxKI+6Qtk2tysC8dMekh3d7fzZ6Tlf5v05X6WxUU2QpPvx6R9ystNX7Zj1cx4Vlb+4OVJjxBZa8QmPYMxf+5iWsxpLMv352EkrGKJ+eiDr371q5tJK5JOauv8MSr5a9L9ebMucNU3Sjmp7NhOlN9dzTTfft+U2e69k30jkH19ctZ7ILuufcv6J5e8bmm/0iJf3Xs+U7/sPiPSPZAb+QTyHgKTBXxB1jvWIzC2/jK2+q6nL3jt9gIC5EC9oi9AxuMMJo061Bogu1/y99prr+bMM8+cqJwHyPScxnjxrD6p4FTOD37wg+ZFL3rRyjbTsxi//vWvN0cfffSa+zJQV9jyYiYFyNe//vXbPZ9xy3fWDswkYARyJiYvIrCmgC/IOsh6BMbWX8ZW3/X0Ba8VIIv1gXTgxdS6+InRtK9+9avtlLW+aWt994ilEY30EO4YqYjnWsZPejxKPkqRP6x7MyOQ3YeA5yMf+UhPvg8xOvjsZz+7ueSSS5r88S5pP2Kf0yNaYoTlxBNPbI477rjmpptuauuTRmXi3/H7fATyjW98Y3Paaac1Uf+o4zOf+cxmv/32Wwl/+UPkuwEy9ike1nzZZZc18XzC8IoRuPhJZXRHvrr12nHHHVf2M7fIH0uT17k72vTYY4+tjPRNaq/oJ9ddd10T27r++uvbesYoYZjF/uejpfHa1A+6bnEv3ZVXXrnSR2L1z+Qc+/i2t72t7Yevec1rmre//e3t/6fnNhY7GBQ8uMC8AuTgO65AAgQILLHAtm3blnjv17frAuT6vMb+aiOQA/WAtQ68aQEydiECwlFHHdWGpHyFxnhW5r333tuOZHbvR8tfF+Gjb7RvlimseTm33HJLG2Ii3Dz44IPt/8c03Pg59dRTm1NOOaX9dwS+eGh87Fe+jXw/utNZ433dehx88MHbBcirr766uf/++1ems0aQ7NuPfJpqCsGHHnpoE4ErTdVMYTMMwycF2fTw9u7z+6JeJ5100nbtEC75oxnyNs3/Hdu76qqr2v3dY4892nZNzyXtOsffIqAmgwceeKD976hv2lY4pAVq9t1339YqQmMKimEa7ZO3W2y31BTlgQ4XxaxTYB4n9nlsY53V9nICgwro44NyVl/Y2PrL2OpbfQcuXEEBciDgaQEyjRLlm0sjiHlY2nPPPVctOHLrrbeuBMjuwiH5KOab3/zmiQEyjQTm204jaCmURHCKKaT5PW35fZz5qFV3gY98yuS11167sh+TRkXzaauzBMjY7xSiwipGFNMIY6pTXmZMHU5hMYXefL9yh+50z3w10TRKGAGtO2qX7k0955xzVoW1vLwI4N3nAab7OvOQGG2eW+XtesMNNzS33XZbGxJjH9I+XXrppa1JCsL5dgXIgQ7qBSpmHif2eWxjgUjtyggF9PERNvomqjy2/jK2+m6ia3hr0zQC5EDdYFqATKNvaXN5SOiGiTwMdANkmsqYykkhb1JAmjYC2R0li3LzMJNP28wX+8gXuJklQHYXCInt5KNv0xbRiX2KEc+Y3hk/3fsq8wAZf48Qeeyxx66MYuYBO58SGq9NhvHvvF55gIy/5VNw479j6mtsIw+d3QA5qb3y0d0IhmsFyO4FgLjwEIHy3HPPbUeCI/gLkAMdyAtazDxO7PPYxoLy2q2RCOjjI2nogao5tv4ytvoO1E1GW4wAOVDTbyZArmcEMk3l7I6IbfQeyLVGIPOQ1l0tNQ9N+Yhk3whkd9roekcgY4QuwtxHP/rRtrViGm0+fTV+l5cZASv2L4Lh448/vrKQUYxKHnPMMaumlXZHICcFyJhKnI8EzjoCOam9uqObawXINIU576rdxYcEyIEO5AUtZh4n9nlsY0F57dZIBPTxkTT0QNUcW38ZW30H6iajLUaAHKjpNxMgYxc2cg9k/iD1taaw5sEnttV9bMGkeyDz0c+0mml+D2S6V3DaPZDdAJlGANczApnu/9x9991XpnNOClRpWmws2JMWwUkBrRsg83sW1xqBzANkehzD/vvvv90qu2vdA5m3V35f51ojkPk9kBGaU1ulKaxGIAc6gBe8mHmc2OexjQVntnuVC+jjlTfwwNUbW38ZW30H7i6jK06AHKjJNxMg032P3VVY08hbhMu+VVj7Vj/tTu2cNoU1QsmkVVi7v+9OYU2rlU5aDTZ//mLsa76ibLDni9p0p7CmUB3/HyGwe59gt9m6I3J5WOu+N5+W+4Y3vKG58847V60CG4v4JPs0gpg/wy/qe/zxxzcf//jH2zCb/+2MM85oy0uL+ORTd/P2mnUEMu8DUedkvdNOO60sPtSdwppGlfueiTlQd1fMnAXmcWKfxzbmzGZzBFYJ6OM6xHoExtZfxlbf9fQFr91eQIAcqFeM6cBb7zMahyCe9LD3IcoesozuQkdDlq2s8QrM4/NlHtsYbwuq+SII6OOL0ArLsw9j6y9jq+/y9MTF3FMBcqB2GdOBN+8AmUbx0pTZgZpskGK6o7T5KOMgG1AIgZ+sdlb6eWTpM6z7nNTUAPkzUfsWxYrXpZkSeaPFRZX0aKD83uX8GbPp9XH8xKN+YqXl9MzYvKz0HFTPMnVYbERgTOfpjfh4z2qBsfWXsdVXf9+cgAC5Ob+VdzvwBoJUDAEC2wnM4/OlGyDT80tjZ1JgjGnsMWW6+yifeE33ObXxu3TvdPx7v/32W7V6ct/zcbsV79uO7kFgowLzOI42um/et3gCY+svY6vv4vW45dojAXKg9nLgDQSpGAIEFi5Axg7l91Pffffdqx5fk3a4uxp0BMAYTYx7nOP96f7ieL0AqaPPW8B5et7iy729sfWXsdV3uXvn1u+9ADlQGzjwBoJUDAECCxkg86nr3dWBY4f7RiAjNMZPLO6VnuUaI5gCpE6+FQLO01uhvrzbHFt/GVt9l7dnLsaeC5ADtYMDbyBIxRAgsBQBMq0ane9sWqk5fpc/+ifufYx7IW+++eb2HscUIK+88spVdc3vs4w/mMLqYBhSwHl6SM36yxpbfxlbfevvwWVrKEAO5OvAGwhSMQQILGSAzFcY7o5A9q0+3LfQTveRP1HRFCj7ml2AdDAMKeA8PaRm/WWNrb+Mrb719+CyNRQgB/J14A0EqRgCBBYyQE67BzKmqD700EPts1FjldS+exzzeyTdA6mjz1vAeXre4su9vbH1l7HVd7l759bvvQA5UBs48AaCVAwBAgsXINe7CmuMNB555JFNvpJrVCoPofE3I5A6+zwFnKfnqb382xpbfxlbfZe/h25tDQTIgfwdeANBKoYAgYUIkHfccceq/eg+B/L0009vLr300iZ/tmMExBtvvLF5xSte0bznPe9p4j177rnnSjl5EI37IQVInX2eAs7T89Re/m2Nrb+Mrb7L30O3tgYC5ED+DryBIBVDgMCWBkj8BGoVcJ6utWXL1Gts/WVs9S3Ta8ZTqgA5UFs78AaCVAwBAgKkPkCggIDzdAHUioscW38ZW31T1/3yl7/cvOQlL2m+/vWvN+94xzuaU089dc1e/dWvfrX5q7/6q+bTn/508+Mf/7h57nOf27zqVa9qjj766OYnoario+L/qiZADtTMYz3wBuJTDAECawjM4/NlHtvQyAS2UkAf30r95dv22PrL2OqbemTcehGPoPq5n/u55lnPelZz3XXXNbvssktvh40Vx1/96lc3P/rRj5oXvvCFzROe8IQ2SH73u99t3vCGNzRnnHHGaEKkADnQZ9pYD7yB+BRDgIAAqQ8QKCrgPF2Ut7rCx9Zfxlbf6LAPP/xwE880jkAY9+v/8z//c3Pttdc2f/iHf7hdf46Q+PKXv7z51re+1bz73e9uDjrooPY13/zmN5vjjz+++f73v9++N0Ykx/AjQA7UymM88AaiUwwBAlME5vH5Mo9taGgCWymgj2+l/vJte2z9ZWz1jR75D//wD80JJ5zQHHfccc0LXvCC9t8REmNUsjsdNb227+/XX399++iq888/vznzzDOXr7NvYI8FyA2g9b1ljAfeQHSKIUBAgNQHCBQXcJ4uTlzVBsbWX8ZW323btrVh7/3vf39z9dVXN/H4qRe/+MXND37wg+Zv//Zvm2c84xmr+nNMUb3ggguaD37wg+39jvnPnXfe2d5Hud9++7UrkD/xiU+s6liYlHuaptlhh6ZptgWmn40JjO3A25iSdxEgsBGBeXy+zGMbG6m79xAYSkAfH0pyHOWMrb+Mrb7f+MY3mj//8z9vnvSkJzV/93d/1+y6667NhRde2I4i9i2mEyOM8fipuEcyf3xVHA333Xdf++zjuHcyRiOf8pSnVH+QGIEcqInHduANxKYYAgRmEJjH58s8tjFDVb2EQDEBfbwYbZUFj62/jK2+V155ZTvtNEYVzzvvvLYP/8u//Etz7LHHNr/xG7+xajGdGJWM+xxjBda+ABn3P8bU1gcffHC75x9XeXC0Q48x9mgEctPtO7YDb9NgCiBAYGaB7r0YM7/RCwkQIEBgwwJjmpk3pu+xjz/+eHu/4+c///l24Zvf+73fa/tI+v0nP/nJdlrrn/zJn7S/f+SRR9r7JO+6667eAJn+/sADDwiQGz7aRvrGMR14I21i1SawZQLz+HyZxza2DNCGCfzkivmYAoFG35zA2D4Tx1TfNNL4vOc9r7nmmmuanXfeeaWzXHbZZc1pp53WvOIVr2je+c53to/qMAK5/bFkBHJzny8r7x7TgTcQmWIIEJhRYB6fL/PYxozV9TICRQT08SKs1RY6tv4ypvqmBXHW6rz77LNP84EPfKCJkBk/7oFcrSVADvTRlw68dCPtHXfcsarkk08+ubniiitWbrTt/v2www7b7ipIPLA0bspNP/Gg077lgeN1F110UTtsHj/xnm75e++996ph90llp2H4m266aTuZvn3svijKPeuss3qH+GetTyyfHD9pn+Pq0Nlnn93+LgzTz+23397e7BzTDOL5PZN+Zn1d7F/Mbe9ejRqoiyiGwIYF5nFin8c2NgzgjQQGENDHB0AcURFj6y9jqW9MM43Fc+J5jn/0R3/U/OzP/ux2vforX/lK89nPfnbV/ZHxPft1r3td+137iCOOWPUeq7BahXXDH43dABmBJ3WwFMriYaWxTHAEvL6/H3jggSsBMULUjTfeuDKXOpURq0TlISp2uC9A5uVPC3mp7Hz78Z4IXqeffnpz6aWXbrfiVB+cLyg8AAAgAElEQVRUlHPqqae2f4qljPOw2w2Wk7YZ780DZKx4FfWNKz8C5Ia7pzcuucA8Tuzz2MaSN4PdX3IBfXzJG3DOuz+2/jKW+qZnNh5zzDErU1S7XSs983HfffdtH+mx++67Nx/72MfaBXb6ngMZ91HG7ycN9My5685lc0YgB2JeK0DGJiIA7bXXXk102G6ATKHp3nvvXRmljJt7Y2WofKngGN3s+/16AuRaYbE7mtcNkNNG8uLvl19+eRNBOUJgGhlczzZTII7/32233doVr8JulgAZ249t33PPPW1Q747Ipt/df//9270uRjCNQA50MChmcIF5nNjnsY3BYRRIYB0C+vg6sLy0XWVyTPfMjqG+P/zhD5tXvepVzQ033NB+337pS1/a29Mffvjh9nviZz7zmZXXffvb325fHyutxgquaeGdb37zm+0KrbESawTJ5z73uaM4egTIgZp5rQCZprXGqOAsI5CTgsykILaeALmeUcX1vDYfOYyRxwh8hxxySDsKu95y+ppkWoCM90QwP+qoo9qRz3j9Qw891E5Hvfvuu1emuqbXpRHa/HW33HKLKawDHQ+KGVZgHif2eWxjWBWlEVifgD6+Pq+xv3ps/WUM9f3yl7/cvOQlL2l+6Zd+aWVkcVI/j4GQuCXrxS9+cfOe97yneeITn9h88IMfbF796le3b3nhC1/YLrDz6U9/uvnud7/bxH2VZ5xxRnq8RfWHjwA5UBNPuwcyDWtPu0cyjcBNuhcvjWR2p4dOuwcy3b+Yh6m17huM/VhP8EvTV0855ZR21DRCbZp+Om3kcpYmiHrHFZ/uTz6qmI+g5vse70l/i3tDk1XUP9+3+Jt7IGdpDa+Zt8A8Tuzz2Ma83WyPQC6gj+sP6xEYW38ZQ31TKHzta1+7crvUpD6Rwmb8PV9M51Of+lRzySWXNLfeemvz4x//uB1xjFHNo48+ejThMUwEyPV8mqzx2mlTWNNb89HISaNza02lnDVATroHcj2hcL2vTdNHU13zcLeeeyn7mKeNQHaDYT7dtxsg84WJ4m9psZ6YliBAbq8/6aJHvqhSPn04LyH1gTe/+c3tr7v37/a166yHZHebk+49mGUbky5yxMkmTS2f1C/ThY1U13RhJt+/tIhWujCTHyv5fqeTW7wuf888TuzTLoKtp72TQV6fqFN38YHuol1dw7TwVm4R5aQ+mcqM4z+O62mvy6ev9/XT9PeTTjpp1T3c+edu38WsfLuTjpf0ObPHHnv0LnTWtzDDrMeC180mMI/jaLY98aplEBhbfxlbfZehDy7yPgqQA7XORgNkbL67YM6kex3z38c867inMkYi1zOFddI02Cg7hbz8C/Cswa/vS3r60nXiiSe2D2DtLtLTt81JzTEtQMYXv1lHICeFRPdA9ut3L3rEq7r9aNrFhryPpv7VV+6sh2N3xHvS9icFkHw7Kejtsssuqx4AnMJPN5Sk9+aj7PG7vI/mdTv44INX+n8cC7HQVBqp746Uxz3E8Qyq+MmPmXmc2Nf6DFtve0/6XMvv/05Gadp5vKe72Fb891ve8pbmyU9+8qrVlru/jwA5y+vic2Ktz7RJfaEbIPOLId0Fzqb1676/p+3GxYTu6n6zHhNeN11gHsfR9L3wimURGFt/GVt9l6UfLup+CpADtcxmAmRfqJu2Cms+MhL/vu2229r7/R599NHeRXryak5aEbW7wuu0UJDKnPSFKd+vuL8wf7zHWqvK9jXJtAAZ79nIPZC5symsswfIFBDS6Ny0vtLXR/JQGSOU6YLIRg7JvmMoXaCI8vpWL84DS9y3EPuTFn5K98Y++9nPbr7zne9sN3Lat495fboXNPJjIX9g8bTViJPvPE7s0z7D8s+cjbR38k4XcN71rnf1ju7m20kXdXbcccfm8MMPXwlX0T5PfepTm8997nNtm6Vjd9rrZgmQcSEqysn7zFoBMuqVe6QRxkmzQGb5vMz7yEaOB+/pF5jHccS+HoGx9Zex1beenro1NREgB3Kf9uVrWtjqe37iWs9NzKd+5c94nDR9KrafT5Hqlt03yjLrKqx9o0vpS1VM1UtX1WfZ5qTmmBYg0/2M3VVY4/fd6W75NLbczgjk7AFyIyNS3Tbsm4690cOx70t5Kj9CWPx0p8/m29roFNa8jO4Fk3yke9IxMilMdH3ncWIfcgRyUn2TV/5oo+6IW/7eFAzzIJ8uDMSxHm2aB8hpr5s1QF544YXNeeedt7IS9rQAOe1RTXk/mdTmQ9wrvtHjZyzvm8dxNBbLMdRzbP1lbPUdQx8uWUcBciBdB95AkIpZOIFZFn6adA9kfmEiD+gxUt73SJqNVr4bTtMjZWI6aIwElQ6Q3Yst3RHHSYGq78JIutCS3w84j8+XafdArnUfZ2q39JppF2PWCpB9C1uFU3o0UITKWKArnseVL44VgX3a6ybdA5n2O992LPOeZnZEH0oj5H1t1hcgYz/zn3QP6aRZIgLkRo/+2d83j+No9r3xykUXGFt/GVt9F73/Lfr+CZADtZADbyBIxSycwCwLP02b0hiVyu/hjdXL0pfzzU7Xyx/FEmV1748suYhO1Kvv/rVugOoLkN397jZ8/p6nPe1pxZ9HNmkEsq9tp7X3ZkYg+wLkpZde2pxzzjntvaPp/u+DDjpouwA57XWzjkDGqOZOO+3U3ocaI50RWNcKkNMe1TTLCOQ0s4X7YFjCHXKeXsJG28JdHlt/GVt9t7BrVbFpAXKgZnTgDQSpmIUT6Jty171Hd1qgiEqlUZqYZnjnnXe2X8w3s2DIpPtoZxkN7SJvdApr39TzFCrzRZ3yEcn4ewSTSfdlpn3LTWMBqtIPtF5rCut623utaZppoaD13AMZ93fH6+N+1Og7F1xwQcvUHYGc9rr1BMiY/p5C3e67776yCNik6fRpcR73QC7cR9jKDjlPL27bLOKeja2/jK2+i9jnlmmfBMiBWsuBNxCkYhZOYIhVWFOl0sqm3cc1bKTSs4wsRrmzvG4jAXKt0DxpFdZYNXnS/nRHLfPQGauQbmWA3Mg9r32rS+cLXc26Cmu6lzQW4or39z3TNl8Aa63XrTdApv4Tj2pJj1vptp9VWDdy9G7Ne5ynt8Z9Wbc6tv4ytvoua79clP0WIAdqCQfeQJCKWTiBSaNJ+ehb7HT3OaDxu3yRojQyF6875JBDVi1qs94FdSbdl9n3LMju4zX67r2cNUB275GLlYXznzwY5yOh6R67afudPzdxq++B7K4iupH27j4Hsts+szwHMgXIdO9geuxH31TXfCXqvtdNugcy9dN8VLP7uJlU3kafAxllx0Jm0a4RhLv3SHoOZPmPPufp8sY1bWFs/WVs9a2pr25FXQTIgdQdeANBKoYAge0E5vH5Mo9taFoCWymgj2+l/vJte2z9ZWz1Xb4euVh7LEAO1B5r3T8Um8ifbTbQJtti8qvw3WfPTdpOmioXC07EfTsxIhRXxde7KmZaLbL7CJDuYzPSlfwh671oZeXtGyMUMcJ2zz339D7nbtH23f4svsA8Tuzz2MbiS9vDmgX08Zpbd/i6ja2/jK2+w/eYcZUoQA7U3lsVIPPdn3UZ+L4l9vMVMg844ICZVKKct7zlLU3cn5UewB5vnPT7mQpd0hdNCpBRnbjvzQ+BzQjM48Q+j21sxsB7CWxWQB/frOC43j+2/jK2+o6rNw9fWwFyINP1Bsg0ehebT4tCxCMI8t+ne6DScvKxeuX111/fjmyle4lSaHzjG9/YnHbaae19Nel98e+41yb9pHtsuiOQ8Zr420033dTes/YXf/EXzRe+8IUm7ieKfcqfqZc/ciGVs+OOOzaHH374yoqaMQL31Kc+tfnc5z63Eizze6HS/Ub77rvvymqUsUhF/HSfG9i3//G6VF6UFYE39iE9KD6/R6nrFIaXXHJJW8/420UXXdSaTXrGXX4fWtQ3beMTn/jEyv19Dz744IpzlLPffvs1z3nOc5r4ffxsZqXRgbqnYpZcYB4n9nlsY8mbwe4vuYA+vuQNOOfdH1t/GVt959ydqtucADlQk64nQObPjTv44INXQlQ85yyfRhohKX5OPPHE9jUPPPBAG/TylQTj72kp+3wKa3e1wXxFx1ilMBammDSFNZah79uP7khaCpARymJ5/QhXMZKZpsXGf8fIZAS0CGqx7zGdNS1qEr+LesVPhNXYr1iUJPYtftKy+BEQ8/2/++67V/6Wlszff//92+13XxfTcyMo7rbbbu1U3ZNOOqkdEYx9iGe7dbfVXYI/f1ZfWt0x6pG3W9ruvffeu2phmIG6lmIINPM4sc9jG5qSwFYK6ONbqb982x5bfxlbfZevRy7WHguQA7VHN0B2V9iLzaRRrkkPGX/HO97RvP71r2+fcZZPI+0uoR9lpVUr84dpr3UPZL7NaQEytp3u44ugdOqpp7YP8O5ObU1lxmsjuKWwGMHs2GOPXQm23Xsg03TPFCDjGXcR6taaRpvvf/f5cZPK6zp1A2kKfPl2Y9QwD7vdlR7zv+XTVkvd4zpQ91TMkgvM48Q+j20seTPY/SUX0MeXvAHnvPtj6y9jq++cu1N1mxMgB2rS9YxA5qNkaYpoPoqYHoeQprbGLsZIXf7g9VkCZHe5+VTeLAEyAlsKgunB3/n01dinfCpsjJ5GyLz22mubvfbaq8mDbZqCG1Nk00+E6RQgU726AXLS/sfjBeInTSftBsh8Oym4dwNtHvi6ATKfNhvvT1NuI1ymRwqEhQA50MGjmKkC8zixz2MbUyvqBQQKCujjBXErLHps/WVs9a2wy861SgLkQNzrCZCTRiDTFM+0S5NG1vIRyUkjkN1po+sdgUxTUSM8xf2MfQvBdEcFYxrrnXfe2Y6gxk8KxTfccENz2223rdxT2a1XX4DsjgSuZwQyD9rJsrvA0FoBMg+Jeffoe9B7GsU0AjnQgaSYXoF5nNjnsQ3NS2ArBfTxrdRfvm2Prb+Mrb7L1yMXa48FyIHaYz0BctI9kH2jZLF76R7I+HfcK5jfA5gHtXwKax4g0whgev8sI5Dx2vw+wb6VWbuhNEbu0ihn7GNfgEwPA497FtcagcwDZHf/Z70HMn/weB60Y0rtpADZvQcyXnfjjTe292+GqRHIgQ4YxaxL4Ccf1Ot6jxcTIECAwOYEtm3btrkClujdAuQSNdYC7KoAOVAjrCdAxiYnrcKar1bancK66667Nmm10rSiaj6yFuWm6ZcRNM8999yVlVXPOOOMdpvpPsXuIjppUZi77rqrDUkRGPse95Fz5X/Pw1qMVvbtV1oh9vjjj28+/vGPr1rEJ1YqzaeSphVa08qw+f6nABgL7sQqqS94wQuaxx9/vHcV1nTf6awjkFHvFPBjtds0fbXPIw+hk56JOVD3UszIBeZxYp/HNkbejKq/xQL6+BY3wJJtfmz9ZWz1XbLuuHC7K0AO1CQlD7w0ZbVvauZAu99bTLrPcpGfY9i3wFBJE2UT2AqBkp8vqT7z2MZW2NkmAX1cH9iIwNg+E8dW3430Ce/5PwEBcqDeUPLAm3eATNsLmvQsyIGYBikmH72NAvNnOA6yAYUQWDCBkp8vvlwvWGPbnWIC8ziOiu28gucuMLb+Mrb6zr1DVbZBAXKgBnXgDQSpGAIEthOYx+fLPLahaQlspYA+vpX6y7ftsfWXsdV3+XrkYu2xADlQezjwBoJUDAECAqQ+QKCAgPN0AdSKixxbfxlbfSvuunOpmgA5ELMDbyBIxRAgIEDqAwQKCDhPF0CtuMix9Zex1bfirjuXqgmQAzE78AaCVAwBAgKkPkCggIDzdAHUioscW38ZW30r7rpzqZoAORCzA28gSMUQILClATIepxOPA4rH7uQ/abGq9Pezzz67icfvpJ/8sTb5o3DS3+ORO/H4oXgMT/z99NNPbx/l033GbN/qz/njjaK89BijfP9ica14tE96DFHfPqTXX3zxxU332bDxt7SAWDw+KH7yfY7/jv246qqrVrYRv8sfP9T3vFzdeXEEnKcXpy2WYU/G1l/GVt9l6IOLvI8C5ECt48AbCFIxBAgsRIDMA2K+EnSEqgiY0wJkNyBGMIyfK664Yl0BMkLbjTfeuBI++wJs7N+pp57alr/ffvs13UcPRRm33XbbqlWlu8+GTeUeddRRK+/vhtIUZPOVnwXI5TlgnaeXp60WYU/H1l/GVt9F6GPLvA8C5ECt58AbCFIxBAgsXICMHUojg8ccc8yGAmSEsRgdjEcD3X333TONQE4a7czL2nnnndtAevnllzfxrNwIeVdffXU70pl+ZgmQ+Qhq3gD571M5DzzwwEqAFiCX54B1nl6etlqEPR1bfxlbfRehjy3zPgiQA7WeA28gSMUQILBwATIPcpsZgdxrr73a0b1Zp7BGULzoootWRh8ndY0IdvETZUfQPeSQQ7abXrvWCOROO+3UHHfccW0AzaflRpn5Ptxwww3Nvffe25afwvCjjz7anHDCCc0FF1yw3XRcXXmxBJynF6s9Fn1vxtZfxlbfRe9/i75/AuRALeTAGwhSMQQILESA7N4DGfcNRkDb6D2Qhx122MoU0vUEyBTUYqSx7ydNXz3llFPaABeB7+abb26nys46ArlWgMynuqYAGaE2AueBBx7YxIisALkcB63z9HK006Ls5dj6y9jquyj9bFn3Q4AcqOUceANBKoYAgYUIkN17HNNOzRogu/dA5iN5999//0xTWGcZgZy2YE/s97QprOsNkOk+zvPPP7+58MILm/POO88I5BIct87TS9BIC7SLY+svY6vvAnW1pdwVAXKgZnPgDQSpGAIEFjpA5gvq5NM9py2Sk98rGBWcZRXWSWE13fN42WWXtfcixk8+4thdyXVagIz7JWe9BzKmsKZtxXYeeuih5rHHHhMgl+C4dZ5egkZaoF0cW38ZW30XqKst5a4IkAM1mwNvIEjFECCw0AEydi4Fp1gQJy1iE/cPxjTXCJV9U1Q3MgKZRg/7VmGN1VLXWtAnv+dxlgA56yqseYBM73n44YdXPdpDF15MAefpxWyXRd2rsfWXsdV3UfvdsuyXADlQSznwBoJUDAECCx8gU4i88sorV/Y1fzZj37TSvffee81nNKa/X3vttU1abCcV3n0OZLofc9IU17T9FGhnCZCxrVmeA5kHyHhP91Efuu/iCjhPL27bLOKeja2/jK2+i9jnlmmfBMiBWsuBNxCkYggQ2NIAiZ9ArQLO07W2bJl6ja2/jK2+ZXrNeEoVIAdqawfeQJCKIUBAgNQHCBQQcJ4ugFpxkWPrL2Orb8Vddy5VEyAHYnbgDQSpGAIEBEh9gEABAefpAqgVFzm2/jK2+lbcdedSNQFyIGYH3kCQiiFAQIDUBwgUEHCeLoBacZFj6y9jq2/FXXcuVRMgB2J24A0EqRgCBARIfYBAAQHn6QKoFRc5tv4ytvpW3HXnUjUBciBmB95AkIohQECA1AcIFBBwni6AWnGRY+svY6tvxV13LlUTIAdiduANBKkYAgQESH2AQAEB5+kCqBUXObb+Mrb6Vtx151I1AXIgZgfeQJCKIUBAgNQHCBQQcJ4ugFpxkWPrL2Orb8Vddy5VWxUg57JFGyFAgAABAgQIECBAgACBZRbYYYemabZt27ZtmSth3wkQIECAAAECBAgQIECgoIAprAVxFU2AAAECBAgQIECAAIGaBATImlpTXQgQIECAAAECBAgQIFBQQIAsiKtoAgQIECBAgAABAgQI1CQgQNbUmupCgAABAgQIECBAgACBggICZEFcRRMgQIAAAQIECBAgQKAmAQGyptZUFwIECBAgQIAAAQIECBQUECAL4iqaAAECBAgQIECAAAECNQkIkDW1proQIECAAAECBAgQIECgoIAAWRBX0QQIECBAgAABAgQIEKhJQICsqTXVhQABAgQIECBAgAABAgUFBMiCuIomQIAAAQIECBAgQIBATQICZE2tqS4ECBAgQIAAAQIECBAoKCBAFsRVNAECBAgQIECAAAECBGoSECBrak11IUCAAAECBAgQIECAQEEBAbIgrqIJECBAgAABAgQIECBQk4AAWVNrqgsBAgQIECBAgAABAgQKCgiQBXEVTYAAAQIECBAgQIAAgZoEBMiaWlNdCBAgQIAAAQIECBAgUFBAgCyIq2gCBAgQIECAAAECBAjUJCBA1tSa6kKAAAECBAgQIECAAIGCAgJkQVxFEyBAgAABAgQIECBAoCYBAbKm1lQXAgQIECBAgAABAgQIFBQQIAviKpoAAQIECBAgQIAAAQI1CQiQNbWmuhAgQIAAAQIECBAgQKCggABZEFfRBAgQIECAAAECBAgQqElAgKypNdWFAAECBAgQIECAAAECBQUEyIK4iiZAgAABAgQIECBAgEBNAgJkTa2pLgQIECBAgAABAgQIECgoIEAWxFU0AQIECBAgQIAAAQIEahIQIGtqTXUhQIAAAQIECBAgQIBAQQEBsiCuogkQIECAAAECBAgQIFCTgABZU2uqCwECBAgQIECAAAECBAoKCJAFcRVNgAABAgQIECBAgACBmgQEyJpaU10IECBAgAABAgQIECBQUECALIiraAIECBAgQIAAAQIECNQkIEDW1JrqQoAAAQIECBAgQIAAgYICAmRBXEUTIECAAAECBAgQIECgJgEBsqbWVBcCBAgQIECAAAECBAgUFBAgC+IqmgABAgQIECBAgAABAjUJCJA1taa6ECBAgAABAgQIECBAoKCAAFkQV9EECBAgQIAAAQIECBCoSUCArKk11YUAAQIECBAgQIAAAQIFBQTIgriKJkCAAAECBAgQIECAQE0CAmRNrakuBAgQIECAAAECBAgQKCggQBbEVTQBAgQIECBAgAABAgRqEhAga2pNdSFAgAABAgQIECBAgEBBAQGyIK6iCRAgQIAAAQIECBAgUJOAAFlTa6oLAQIECBAgQIAAAQIECgoIkAVxFU2AAAECBAgQIECAAIGaBATImlpTXQgQIECAAAECBAgQIFBQQIAsiKtoAgQIECBAgAABAgQI1CQgQNbUmupCgAABAgQIECBAgACBggICZEFcRRMgQIAAAQIECBAgQKAmAQGyptZUFwIECBAgQIAAAQIECBQUECAL4iqaAAECBAgQIECAAAECNQkIkDW1proQIECAAAECBAgQIECgoIAAWRBX0QQIECBAgAABAgQIEKhJQICsqTXVhQABAgQIECBAgAABAgUFBMiCuIomQIAAAQIECBAgQIBATQICZE2tqS4ECBAgQIAAAQIECBAoKCBAFsRVNAECBAgQIECAAAECBGoSECBrak11IUCAAAECBAgQIECAQEEBAbIgrqIJECBAgAABAgQIECBQk4AAWVNrqgsBAgQIECBAgAABAgQKCgiQBXEVTYAAAQIECBAgQIAAgZoEBMiaWlNdCBAgQIAAAQIECBAgUFBAgCyIq2gCBAgQIECAAAECBAjUJCBA1tSa6kKAAAECBAgQIECAAIGCAgJkQVxFEyBAgAABAgQIECBAoCYBAbKm1lQXAgQIECBAgAABAgQIFBQQIAviKpoAAQIECBAgQIAAAQI1CQiQNbWmuhAgQIAAAQIECBAgQKCggABZEFfRBAgQIECAAAECBAgQqElAgKypNdWFAAECBAgQIECAAAECBQUEyIK4iiZAgAABAgQIECBAgEBNAgJkTa2pLgQIECBAgAABAgQIECgoIEAWxFU0AQIECBAgQIAAAQIEahIQIGtqTXUhQIAAAQIECBAgQIBAQQEBsiCuogkQIECAAAECBAgQIFCTgABZU2uqCwECBAgQIECAAAECBAoKCJAFcRVNgAABAgQIECBAgACBmgQEyJpaU10IECBAgAABAgQIECBQUECALIiraAIECBAgQIAAAQIECNQkIEDW1JrqQoAAAQIECBAgQIAAgYICAmRBXEUTIECAAAECBAgQIECgJgEBsqbWVBcCBAgQIECAAAECBAgUFBAgC+IqmgABAgQIECBAgAABAjUJCJA1taa6ECBAgAABAgQIECBAoKCAAFkQV9EECBAgQIAAAQIECBCoSUCArKk11YUAAQIECBAgQIAAAQIFBQTIgriKJkCAAAECBAgQIECAQE0CAmRNrakuBAgQIECAAAECBAgQKCggQBbEVTQBAgQIECBAgAABAgRqEhAga2pNdSFAgAABAgQIECBAgEBBAQGyIK6iCRAgQIAAAQIECBAgUJOAAFlTa6oLAQIECBAgQIAAAQIECgoIkAVxFU2AAAECBAgQIECAAIGaBATImlpTXQgQIECAAAECBAgQIFBQQIAsiKtoAgQIECBAgAABAgQI1CQgQNbUmupCgAABAgQIECBAgACBggICZEFcRRMgQIAAAQIECBAgQKAmAQGyptZUFwIECBAgQIAAAQIECBQUECAL4iqaAAECBAgQIECAAAECNQkIkDW1proQIECAAAECBAgQIECgoIAAWRBX0QQIECBAgAABAgQIEKhJQICsqTXVhQABAgQIECBAgAABAgUFBMiCuIomQIAAAQIECBAgQIBATQICZE2tqS4ECBAgQIAAAQIECBAoKCBAFsRVNAECBAgQIECAAAECBGoSECBrak11IUCAAAECBAgQIECAQEEBAbIgrqIJECBAgAABAgQIECBQk4AAWVNrqgsBAgQIECBAgAABAgQKCgiQBXEVTYAAAQIECBAgQIAAgZoEBMiaWlNdCBAgQIAAAQIECBAgUFBAgCyIq2gCBAgQIECAAAECBAjUJCBA1tSa6kKAAAECBAgQIECAAIGCAgJkQVxFEyBAgAABAgQIECBAoCYBAbKm1lQXAgQIECBAgAABAgQIFBQQIAviKpoAAQIECBAgQIAAAQI1CQiQNbWmuhAgQIAAAQIECBAgQKCggABZEFfRBAgQIECAAAECBAgQqElAgKypNdWFAAECBAgQIECAAAECBQUEyIK4iiZAgAABAjGtLJcAACAASURBVAQIECBAgEBNAgJkTa2pLgQIECBAgAABAgQIECgoIEAWxFU0AQIECBAgQIAAAQIEahIQIGtqTXUhQIAAAQIECBAgQIBAQQEBsiCuogkQIECAAAECBAgQIFCTgABZU2uqCwECBAgQIECAAAECBAoKCJAFcRVNgAABAgQIECBAgACBmgQEyJpaU10IECBAgAABAgQIECBQUECALIiraAIECBAgQIAAAQIECNQkIEDW1JrqQoAAAQIECBAgQIAAgYICAmRBXEUTIECAAAECBAgQIECgJgEBsqbWVBcCBAgQIECAAAECBAgUFBAgC+IqmgABAgQIECBAgAABAjUJCJA1taa6ECBAgAABAgQIECBAoKCAAFkQV9EECBAgQIAAAQIECBCoSUCArKk11YUAAQIECBAgQIAAAQIFBQTIgriKJkCAAAECBAgQIECAQE0CAmRNrakuBAgQIECAAAECBAgQKCggQBbEVTQBAgQIECBAgAABAgRqEhAga2pNdSFAgAABAgQIECBAgEBBAQGyIK6iCRAgQIAAAQIECBAgUJOAAFlTa6oLAQIECBAgQIAAAQIECgoIkAVxFU2AAAECBAgQIECAAIGaBATImlpTXQgQIECAAAECBAgQIFBQQIAsiKtoAgQIECBAgAABAgQI1CQgQNbUmupCgAABAgQIECBAgACBggICZEFcRRMgQIAAAQIECBAgQKAmAQGyptZUFwIECBAgQIAAAQIECBQUECAL4iqaAAECBAgQIECAAAECNQkIkDW1proQIECAAAECBAgQIECgoIAAWRBX0QQIECBAgAABAgQIEKhJQICsqTXVhQABAgQIECBAgAABAgUFBMiCuIomQIAAAQIECBAgQIBATQICZE2tqS4ECBAgQIAAAQIECBAoKCBAFsRVNAECBAgQIECAAAECBGoSECBrak11IUCAAAECBAgQIECAQEEBAbIgrqIJECBAgAABAgQIECBQk4AAWVNrqgsBAgQIECBAgAABAgQKCgiQBXEVTYAAAQIECBAgQIAAgZoEBMiaWlNdCBAgQIAAAQIECBAgUFBAgCyIq2gCBAgQIECAAAECBAjUJCBA1tSa6kKAAAECBAgQIECAAIGCAgJkQVxFEyBAgAABAgQIECBAoCYBAbKm1lQXAgQIECBAgAABAgQIFBQQIAviKpoAAQIECBAgQIAAAQI1CQiQNbWmuhAgQIAAAQIECBAgQKCggABZEFfRBAgQIECAAAECBAgQqElAgKypNdWFAAECBAgQIECAAAECBQUEyIK4iiZAgAABAgQIECBAgEBNAgJkTa2pLgQIECBAgAABAgQIECgoIEAWxFU0AQIECBAgQIAAAQIEahIQIGtqTXUhQIAAAQIECBAgQIBAQQEBsiCuogkQIECAAAECBAgQIFCTgABZU2uqCwECBAgQIECAAAECBAoKCJAFcRVNgAABAgQIECBAgACBmgQEyJpaU10IECBAgAABAgQIECBQUECALIiraAIECBAgQIAAAQIECNQkIEDW1JrqQoAAAQIECBAgQIAAgYICAmRBXEUTIECAAAECBAgQIECgJgEBsqbWVBcCBAgQIECAAAECBAgUFBAgC+IqmgABAgQIECBAgAABAjUJCJA1taa6ECBAgAABAgQIECBAoKCAAFkQV9EECBAgQIAAAQIECBCoSUCArKk11YUAAQIECBAgQIAAAQIFBQTIgriKJkCAAAECBAgQIECAQE0CAmRNrakuBAgQIECAAAECBAgQKCggQBbEVTQBAgQIECBAgAABAgRqEhAga2pNdSFAgAABAgQIECBAgEBBAQGyIK6iCRAgQIAAAQIECBAgUJOAAFlTa6oLAQIECBAgQIAAAQIECgoIkAVxFU2AAAECBAgQIECAAIGaBATImlpTXQgQIECAAAECBAgQIFBQQIAsiKtoAgQIECBAgAABAgQI1CQgQNbUmupCgAABAgQIECBAgACBggICZEFcRRMgQIAAAQIECBAgQKAmAQGyptZUFwIECBAgQIAAAQIECBQUECAL4iqaAAECBAgQIECAAAECNQkIkDW1proQIECAAAECBAgQIECgoIAAWRBX0QQIECBAgAABAgQIEKhJQICsqTXVhQABAgQIECBAgAABAgUFBMiCuIomQIAAAQIECBAgQIBATQICZE2tqS4ECBAgQIAAAQIECBAoKCBAFsRVNAECBAgQIECAAAECBGoSECBrak11IUCAAAECBAgQIECAQEEBAbIgrqIJECBAgAABAgQIECBQk4AAWVNrqgsBAgQIECBAgAABAgQKCgiQBXEVTYAAAQIECBAgQIAAgZoEBMiaWlNdCBAgQIAAAQIECBAgUFBAgCyIq2gCBAgQIECAAAECBAjUJCBA1tSa6kKAAAECBAgQIECAAIGCAgJkQVxFEyBAgAABAgQIECBAoCYBAbKm1lQXAgQIECBAgAABAgQIFBQQIAviKpoAAQIECBAgQIAAAQI1CQiQNbWmuhAgQIAAAQIECBAgQKCggABZEFfRBAgQIECAAAECBAgQqElAgKypNdWFAAECBAgQIECAAAECBQUEyIK4iiZAgAABAgQIECBAgEBNAgJkTa2pLgQIECBAgAABAgQIECgoIEAWxFU0AQIECBAgQIAAAQIEahIQIGtqTXUhQIAAAQIECBAgQIBAQQEBsiCuogkQIECAAAECBAgQIFCTgABZU2uqCwECBAgQIECAAAECBAoKCJAFcRVNgAABAgQIECBAgACBmgQEyJpaU10IECBAgAABAgQIECBQUECALIiraAIECBAgQIAAAQIECNQkIEDW1JrqQoAAAQIECBAgQIAAgYICAmRBXEUTIECAAAECBAgQIECgJgEBsqbWVBcCBAgQIECAAAECBAgUFBAgC+IqmgABAgQIECBAgAABAjUJCJA1taa6ECBAgAABAgQIECBAoKCAAFkQV9EECBAgQIAAAQIECBCoSUCArKk11YUAAQIECBAgQIAAAQIFBQTIgriKJkCAAAECBAgQIECAQE0CAmRNrakuBAgQIECAAAECBAgQKCggQBbEVTQBAgQIECBAgAABAgRqEhAga2pNdSFAgAABAgQIECBAgEBBAQGyIK6iCRAgQIAAAQIECBAgUJOAAFlTa6oLAQIECBAgQIAAAQIECgoIkAVxFU2AAAECBAgQIECAAIGaBATImlpTXQgQIECAAAECBAgQIFBQQIAsiKtoAgQIECBAgAABAgQI1CQgQNbUmupCgAABAgQIECBAgACBggICZEFcRRMgQIAAAQIECBAgQKAmAQGyptZUFwIECBAgQIAAAQIECBQUECAL4iqaAAECBAgQIECAAAECNQkIkDW1proQIECAAAECBAgQIECgoIAAWRBX0QQIECBAgAABAgQIEKhJQICsqTXVhQABAgQIECBAgAABAgUFBMiCuIomQIAAAQIECBAgQIBATQICZE2tqS4ECBAgQIAAAQIECBAoKCBAFsRVNAECBAgQIECAAAECBGoSECBrak11IUCAAAECBAgQIECAQEEBAbIgrqIJECBAgAABAgQIECBQk4AAWVNrqgsBAgQIECBAgAABAgQKCgiQBXEVTYAAAQIECBAgQIAAgZoEBMiaWlNdCBAgQIAAAQIECBAgUFBAgCyIq2gCBAgQIECAAAECBAjUJCBA1tSa6kKAAAECBAgQIECAAIGCAgJkQVxFEyBAgAABAgQIECBAoCYBAbKm1lQXAgQIECBAgAABAgQIFBQQIAviKpoAAQIECBAgQIAAAQI1CQiQNbWmuhAgQIAAAQIECBAgQKCggABZEFfRBAgQIECAAAECBAgQqElAgKypNdWFAAECBAgQIECAAAECBQUEyIK4iiZAgAABAgQIECBAgEBNAgJkTa2pLgQIECBAgAABAgQIECgoIEAWxFU0AQIECBAgQIAAAQIEahIQIGtqTXUhQIAAAQIECBAgQIBAQQEBsiCuogkQIECAAAECBAgQIFCTgABZU2uqCwECBAgQIECAAAECBAoKCJAFcRVNgAABAgQIECBAgACBmgQEyJpaU10IECBAgAABAgQIECBQUECALIiraAIECBAgQIAAAQIECNQkIEDW1JrqQoAAAQIECBAgQIAAgYICAmRBXEUTIECAAAECBAgQIECgJgEBsqbWVBcCBAgQIECAAAECBAgUFBAgC+IqmgABAgQIECBAgAABAjUJCJA1taa6ECBAgAABAgQIECBAoKCAAFkQV9EECBAgQIAAAQIECBCoSUCArKk11YUAAQIECBAgQIAAAQIFBQTIgriKJkCAAAECBAgQIECAQE0CAmRNrakuBAgQIECAAAECBAgQKCggQBbEVTQBAgQIECBAgAABAgRqEhAga2pNdSFAgAABAgQIECBAgEBBAQGyIK6iCRAgQIAAAQIECBAgUJOAAFlTa6oLAQIECBAgQIAAAQIECgoIkAVxFU2AAAECBAgQIECAAIGaBATImlpTXQgQIECAAAECBAgQIFBQQIAsiKtoAgQIECBAgAABAgQI1CQgQNbUmupCgAABAgQIECBAgACBggICZEFcRRMgQIAAAQIECBAgQKAmAQGyptZUFwIECBAgQIAAAQIECBQUECAL4iqaAAECBAgQIECAAAECNQkIkDW1proQIECAAAECBAgQIECgoIAAWRBX0QQIECBAgAABAgQIEKhJQICsqTXVhQABAgQIECBAgAABAgUFBMiCuIomQIAAAQIECBAgQIBATQICZE2tqS4ECBAgQIAAAQIECBAoKCBAFsRVNAECBAgQIECAAAECBGoSECBrak11IUCAAAECBAgQIECAQEEBAbIgrqIJECBAgAABAgQIECBQk4AAWVNrqgsBAgQIECBAgAABAgQKCgiQBXEVTYAAAQIECBAgQIAAgZoEBMiaWlNdCBAgQIAAAQIECBAgUFBAgCyIq2gCBAgQIECAAAECBAjUJCBA1tSa6kKAAAECBAgQIECAAIGCAgJkQVxFEyBAgAABAgQIECBAoCYBAbKm1lQXAgQIECBAgAABAgQIFBQQIAviKpoAAQIECBAgQIAAAQI1CQiQNbWmuhAgQIAAAQIECBAgQKCggABZEFfRBAgQIECAAAECBAgQqElAgKypNdWFAAECBAgQIECAAAECBQUEyIK4iiZAgAABAgQIECBAgEBNAgJkTa2pLgQIECBAgAABAgQIECgoIEAWxFU0AQIECBAgQIAAAQIEahIQIGtqTXUhQIAAAQIECBAgQIBAQQEBsiCuogkQIECAAAECBAgQIFCTgABZU2uqCwECBAgQIECAAAECBAoKCJAFcRVNgAABAgQIECBAgACBmgQEyJpaU10IECBAgAABAgQIECBQUECALIiraAIECBAgQIAAAQIECNQkIEDW1JrqQoAAAQIECBAgQIAAgYICAmRBXEUTIECAAAECBAgQIECgJgEBsqbWVBcCBAgQIECAAAECBAgUFBAgC+IqmgABAgQIECBAgAABAjUJCJA1taa6ECBAgAABAgQIECBAoKCAAFkQV9EECBAgQIAAAQIECBCoSUCArKk11YUAAQIECBAgQIAAAQIFBQTIgriKJkCAAAECBAgQIECAQE0CAmRNrakuBAgQIECAAAECBAgQKCggQBbEVTQBAgQIECBAgAABAgRqEhAga2pNdSFAgAABAgQIECBAgEBBAQGyIK6iCRAgQIAAAQIECBAgUJOAAFlTa6oLAQIECBAgQIAAAQIECgoIkAVxFU2AAAECBAgQIECAAIGaBATImlpTXQgQIECAAAECBAgQIFBQQIAsiKtoAgQIECBAgAABAgQI1CQgQNbUmupCgAABAgQIECBAgACBggICZEFcRRMgQIAAAQIECBAgQKAmAQGyptZUFwIECBAgQIAAAQIECBQUECAL4iqaAAECBAgQIECAAAECNQkIkDW1proQIECAAAECBAgQIECgoIAAWRBX0QQIECBAgAABAgQIEKhJQICsqTXVhQABAgQIECBAgAABAgUFBMiCuIomQIAAAQIECBAgQIBATQICZE2tqS4ECBAgQIAAAQIECBAoKCBAFsRVNAECBAgQIECAAAECBGoSECBrak11IUCAAAECBAgQIECAQEEBAbIgrqIJECBAgAABAgQIECBQk4AAWVNrqgsBAgQIECBAgAABAgQKCgiQBXEVTYAAAQIECBAgQIAAgZoEBMiaWlNdCBAgQIAAAQIECBAgUFBAgCyIq2gCBAgQIECAAAECBAjUJCBA1tSa6kKAAAECBAgQIECAAIGCAgJkQVxFEyBAgAABAgQIECBAoCYBAbKm1lQXAgQIECBAgAABAgQIFBQQIAviKpoAAQIECBAgQIAAAQI1CQiQNbWmuhAgQIAAAQIECBAgQKCggABZEFfRBAgQIECAAAECBAgQqElAgKypNdWFAAECBAgQIECAAAECBQUEyIK4iiZAgAABAgQIECBAgEBNAgJkTa2pLgQIECBAgAABAgQIECgoIEAWxFU0AQIECBAgQIAAAQIEahIQIGtqTXUhQIAAAQIECBAgQIBAQQEBsiCuogkQIECAAAECBAgQIFCTgABZU2uqCwECBAgQIECAAAECBAoKCJAFcRVNgAABAgQIECBAgACBmgQEyJpaU10IECBAgAABAgQIECBQUECALIiraAIECBAgQIAAAQIECNQkIEDW1JrqQoAAAQIECBAgQIAAgYICAmRBXEUTIECAAAECBAgQIECgJgEBsqbWVBcCBAgQIECAAAECBAgUFBAgC+IqmgABAgQIECBAgAABAjUJCJA1taa6ECBAgAABAgQIECBAoKCAAFkQV9EECBAgQIAAAQIECBCoSUCArKk11YUAAQIECBAgQIAAAQIFBQTIgriKJkCAAAECBAgQIECAQE0CAmRNrakuBAgQIECAAAECBAgQKCggQBbEVTQBAgQIECBAgAABAgRqEhAga2pNdSFAgAABAgQIECBAgEBBAQGyIK6iCRAgQIAAAQIECBAgUJOAAFlTa6oLAQIECBAgQIAAAQIECgoIkAVxFU2AAAECBAgQIECAAIGaBATImlpTXQgQIECAAAECBAgQIFBQQIAsiKtoAgQIECBAgAABAgQI1CQgQNbUmupCgAABAgQIECBAgACBggICZEFcRRMgQIAAAQIECBAgQKAmAQGyptZUFwIECBAgQIAAAQIECBQUECAL4iqaAAECBAgQIECAAAECNQkIkDW1proQIECAAAECBAgQIECgoIAAWRBX0QQIECBAgAABAgQIEKhJQICsqTXVhQABAgQIECBAgAABAgUFBMiCuIomQIAAAQIECBAgQIBATQICZE2tqS4ECBAgQIAAAQIECBAoKCBAFsRVNAECBAgQIECAAAECBGoSECBrak11IUCAAAECBAgQIECAQEEBAbIgrqIJECBAgAABAgQIECBQk4AAWVNrqgsBAgQIECBAgAABAgQKCgiQBXEVTYAAAQIECBAgQIAAgZoEBMiaWlNdCBAgQIAAAQIECBAgUFBAgCyIq2gCBAgQIECAAAECBAjUJCBA1tSa6kKAAAECBAgQIECAAIGCAgJkQVxFEyBAgAABAgQIECBAoCYBAbKm1lQXAgQIECBAgAABAgQIFBQQIAviKpoAAQIECBAgQIAAAQI1CQiQNbWmuhAgQIAAAQIECBAgQKCggABZEFfRBAgQIECAAAECBAgQqElAgKypNdWFAAECBAgQIECAAAECBQUEyIK4iiZAgAABAgQIECBAgEBNAgJkTa2pLgQIECBAgAABAgQIECgoIEAWxFU0AQIECBAgQIAAAQIEahIQIGtqTXUhQIAAAQIECBAgQIBAQQEBsiCuogkQIECAAAECBAgQIFCTgABZU2uqCwECBAgQIECAAAECBAoKCJAFcRVNgAABAgQIECBAgACBmgQEyJpaU10IECBAgAABAgQIECBQUECALIiraAIECBAgQIAAAQIECNQkIEDW1JrqQoAAAQIECBAgQIAAgYICAmRBXEUTIECAAAECBAgQIECgJgEBsqbWVBcCBAgQIECAAAECBAgUFBAgC+IqmgABAgQIECBAgAABAjUJCJA1taa6ECBAgAABAgQIECBAoKCAAFkQV9EECBAgQIAAAQIECBCoSUCArKk11YUAAQIECBAgQIAAAQIFBQTIgriKJkCAAAECBAgQIECAQE0CAmRNrakuBAgQIECAAAECBAgQKCggQBbEVTQBAgQIECBAgAABAgRqEhAga2pNdSFAgAABAgQIECBAgEBBAQGyIK6iCRAgQIAAAQIECBAgUJOAAFlTa6oLAQIECBAgQIAAAQIECgoIkAVxFU2AAAECBAgQIECAAIGaBATImlpTXQgQIECAAAECBAgQIFBQQIAsiKtoAgQIECBAgAABAgQI1CQgQNbUmupCgAABAgQIECBAgACBggICZEFcRRMgQIAAAQIECBAgQKAmAQGyptZUFwIECBAgQIAAAQIECBQUECAL4iqaAAECBAgQIECAAAECNQkIkDW1proQIECAAAECBAgQIECgoIAAWRBX0QQIECBAgAABAgQIEKhJQICsqTXVhQABAgQIECBAgAABAgUFBMiCuIomQIAAAQIECBAgQIBATQICZE2tqS4ECBAgQIAAAQIECBAoKCBAFsRVNAECBAgQIECAAAECBGoSECBrak11IUCAAAECBAgQIECAQEEBAbIgrqIJECBAgAABAgQIECBQk4AAWVNrqgsBAgQIECBAgAABAgQKCgiQBXEVTYAAAQIECBAgQIAAgZoEBMiaWlNdCBAgQIAAAQIECBAgUFBAgCyIq2gCBAgQIECAAAECBAjUJCBA1tSa6kKAAAECBAgQIECAAIGCAgJkQVxFEyBAgAABAgQIECBAoCYBAbKm1lQXAgQIECBAgAABAgQIFBQQIAviKpoAAQIECBAgQIAAAQI1CQiQNbWmuhAgQIAAAQIECBAgQKCggABZEFfRBAgQIECAAAECBAgQqElAgKypNdWFAAECBAgQIECAAAECBQUEyIK4iiZAgAABAgQIECBAgEBNAgJkTa2pLgQIECBAgAABAgQIECgoIEAWxFU0AQIECBAgQIAAAQIEahIQIGtqTXUhQIAAAQIECBAgQIBAQQEBsiCuogkQIECAAAECBAgQIFCTgABZU2uqCwECBAgQIECAAAECBAoKCJAFcRVNgAABAgQIECBAgACBmgQEyJpaU10IECBAgAABAgQIECBQUECALIiraAIECBAgQIAAAQIECNQkIEDW1JrqQoAAAQIECBAgQIAAgYICAmRBXEUTIECAAAECBAgQIECgJgEBsqbWVBcCBAgQIECAAAECBAgUFBAgC+IqmgABAgQIECBAgAABAjUJCJA1taa6ECBAgAABAgQIECBAoKCAAFkQV9EECBAgQIAAAQIECBCoSUCArKk11YUAAQIECBAgQIAAAQIFBQTIgriKJkCAAAECBAgQIECAQE0CAmRNrakuBAgQIECAAAECBAgQKCggQBbEVTQBAgQIECBAgAABAgRqEhAga2pNdSFAgAABAgQIECBAgEBBAQGyIK6iCRAgQIAAAQIECBAgUJOAAFlTa6oLAQIECBAgQIAAAQIECgoIkAVxFU2AAAECBAgQIECAAIGaBATImlpTXQgQIECAAAECBAgQIFBQQIAsiKtoAgQIECBAgAABAgQI1CQgQNbUmupCgAABAgQIECBAgACBggICZEFcRRMgQIAAAQIECBAgQKAmAQGyptZUFwIECBAgQIAAAQIECBQUECAL4iqaAAECBAgQIECAAAECNQkIkDW1proQIECAAAECBAgQIECgoIAAWRBX0QQIECBAgAABAgQIEKhJQICsqTXVhQABAgQIECBAgAABAgUFBMiCuIomQIAAAQIECBAgQIBATQICZE2tqS4ECBAgQIAAAQIECBAoKCBAFsRVNAECBAgQIECAAAECBGoSECBrak11IUCAAAECBAgQIECAQEEBAbIgrqIJECBAgAABAgQIECBQk4AAWVNrqgsBAgQIECBAgAABAgQKCgiQBXEVTYAAAQIECBAgQIAAgZoEBMiaWlNdCBAgQIAAAQIECBAgUFBAgCyIq2gCBAgQIECAAAECBAjUJCBA1tSa6kKAAAECBAgQIECAAIGCAgJkQVxFEyBAgAABAgQIECBAoCYBAbKm1lQXAgQIECBAgAABAgQIFBQQIAviKpoAAQIECBAgQIAAAQI1CQiQNbWmuhAgQIAAAQIECBAgQKCggABZEFfRBAgQIECAAAECBAgQqElAgKypNdWFAAECBAgQIECAAAECBQUEyIK4iiZAgAABAgQIECBAgEBNAgJkTa2pLgQIECBAgAABAgQIECgoIEAWxFU0AQIECBAgQIAAAQIEahIQIGtqTXUhQIAAAQIECBAgQIBAQQEBsiCuogkQIECAAAECBAgQIFCTgABZU2uqCwECBAgQIECAAAECBAoKCJAFcRVNgAABAgQIECBAgACBmgQEyJpaU10IECBAgAABAgQIECBQUECALIiraAIECBAgQIAAAQIECNQkIEDW1JrqQoAAAQIECBAgQIAAgYICAmRBXEUTIECAAAECBAgQIECgJgEBsqbWVBcCBAgQIECAAAECBAgUFBAgC+IqmgABAgQIECBAgAABAjUJCJA1taa6ECBAgAABAgQIECBAoKCAAFkQV9EECBAgQIAAAQIECBCoSUCArKk11YUAAQIECBAgQIAAAQIFBQTIgriKJkCAAAECBAgQIECAQE0CAmRNrakuBAgQIECAAAECBAgQKCggQBbEVTQBAgQIECBAgAABAgRqEhAga2pNdSFAgAABAgQIECBAgEBBAQGyIK6iCRAgQIAAAQIECBAgUJOAAFlTa6oLAQIECBAgQIAAAQIECgoIkAVxFU2AaafACAAAIABJREFUAAECBAgQIECAAIGaBATImlpTXQgQIECAAAECBAgQIFBQQIAsiKtoAgQIECBAgAABAgQI1CQgQNbUmupCgAABAgQIECBAgACBggICZEFcRRMgQIAAAQIECBAgQKAmAQGyptZUFwIECBAgQIAAAQIECBQUECAL4iqaAAECBAgQIECAAAECNQkIkDW1proQIECAAAECBAgQIECgoIAAWRBX0QQIECBAgAABAgQIEKhJQICsqTXVhQABAgQIECBAgAABAgUFVgXIgttRNAECBAgQIECAAAECBAjUIbDDDk3TbNu2bVsd1VGL0QvElRH9efTdAAABAgQILKiA8/SCNozdIjCDgCmsMyB5yfIJODEtX5vZYwIECBAYj4Dz9HjaWk3rExAg62tTNWqaxolJNyBAgAABAosr4Dy9uG1jzwhMExAgpwn5+1IKODEtZbPZaQIECBAYiYDz9EgaWjWrFBAgq2xWlXJi0gcIECBAgMDiCjhPL27b2DMC0wQEyGlC/r6UAk5MS9lsdpoAAQIERiLgPD2ShlbNKgUEyCqbVaWcmPQBAgQIECCwuALO04vbNvaMwDQBAXKakL8vpYAT01I2m50mQIAAgZEIOE+PpKFVs0oBAbLKZlUpJyZ9gAABAgQILK6A8/Tito09IzBNYOYAed999zVHHnlks//++zdXXHHFqnLf+ta3NrfddltzzTXXNDvvvHP7t0ceeaQ57rjjmptuumnltSeffPKq96Yy77jjjlXl7b333s11113XHHDAARPLyt/w4Q9/uDniiCOm1dXfRyQwy4npla98ZXPllVf2qqQ++OCDDzYXXXRRE33s/vvvb172spc199xzT+97on/Ha6Pfx+v6+uSkPh8Fdvv9iJpLVQkQIEBgZAJ95+n4PnnVVVet+g4YLOncefbZZ7fn1njdvffeu9330b7X3Xjjje05fM8999xOOMpJf99pp522+96a3pB/z/zIRz7Sfh/u+znssMPa78KPPvpo+5ru99t4T/e78MiaXXUrEVh3gIyDoRvYugHy9ttvb79AH3LIIasO7vjC/qUvfWnlQI4D/YQTTmguuOCClbAYrnFwnnXWWSsfICmMTvpSXklbqMaAArMEyHxz0efiokV+EST1xRQg85PPpD45ra9O6vMDVl1RBAgQIEBg4QUmBcj4/peCWBqU2EyA/NCHPtTss88+zWWXXbYyyJHO7xHynv/857ffS1OA7H7X7H4nnfR9IQefdK5P9TjqqKOaM888c+HbyA4SmCSwrgAZYW/XXXdt/uM//mPV1Zw8QMaGYgTmwAMP7D04IkTGT4xirvVluq/MaQGybyRU049TYJkDZAqhk46hcbaoWhMgQIBATQKTAmTMaHvggQeaPGRtJkBGefHd9dhjj101WJG+j6aBjUkBsvtddTMBMtrPd9WaevF467LuABlXTCL8xcGYprLmB8Pdd9/dnH766c2ll1666kBNxDE6ef755zdXX311+6u+Ecj4ff66SQf1eJtNzacJLHOAnFY3fydAgAABAssuMClAxtTUmMGWz0TbbICMaa8PPfTQysBGlBffVQ899NDmfe9739QRyJtvvnnlO68Auew9z/4PIbDuABnTTeMnRgMvvvjilbno6R7IW265ZeWesb755vmVnD322GNigMxft++++06cl56mHvRtawggZSynwCIHyEn3RXSn7CynvL0mQIAAAQLTBdYKkDFAESOEEfryewo3cg9kfD994xvf2E5hjVtSYlpshMAIhRFU020qa90DmZ+f17oHMr4Xx0CLKazT298rlltgQwEyFrfJbzy+4YYbVhbRKRkgp01hXe6msPdDCixygJw06j5k/ZVFgAABAgQWWWBagMzvFzzmmGPaRWk2GiAjhF544YVtGfEdNsJphMf46QbI7nfNtK5HGjSZdQRy0sXiFDIXuW3sG4FpAhsOkOk+rZjKutdee60ESFNYp5H7+zwEBMh5KNsGAQIECBDYmMC0ABmlpgVsInRF0NtMgIwBjhh1POecc1ZutYqFIacFyNiPfP2OWQNk92JxdyHJjal5F4HFENhwgIzdT1dlnv70pzdPetKT2mkG8bNVi+gsBqm9WAQBAXIRWsE+ECBAgACBfoFZAmQKb1/84heb733veyu3Tk0KcfG9NF+HI1+jIx6tke57/NrXvtbe0xjlzBogY7AkpqduNECmgZeoU3fFd32EwLIJbCpARmXj4OwuuewxHsvWDerbXwGyvjZVIwIECBCoR2DWAJk/Pzk9Rm7S4zDy+ybjXsfuiqfp+c+pnFkCZDeUbjRA5gMv3cfc1dOqajIWgU0HyElXVNLvb7rpphXL7sNTJz1UvbswTl9ZeQOlci2NPJZuO72eWx0g836f9jZOWNG3J90XEa+LaTonnnjimqP402vvFQQIECBAYLEFZg2QUYu0cE3+HPJZvmd2vxfmgTEWX+wLkJPO37GSa74vfbp77713+0zptRaJTHVxL+Ri9097t7bAzAESJIFlElhvgFymutlXAgQIECCw7ALO08vegvZ/zAIC5Jhbv+K6OzFV3LiqRoAAAQJLL+A8vfRNqAIjFhAgR9z4NVfdianm1lU3AgQIEFh2AefpZW9B+z9mAQFyzK1fcd2dmCpuXFUjQIAAgaUXcJ5e+iZUgRELCJAjbvyaq+7EVHPrqhsBAgQILLuA8/Syt6D9H7OAADnm1q+47k5MFTeuqhEgQIDA0gs4Ty99E6rAiAUEyBE3fs1Vd2KquXXVjQABAgSWXcB5etlb0P6PWUCAHHPrV1x3J6aKG1fVCBAgQGDpBZynl74JVWDEAgLkiBu/5qo7Mf1f677yla9srrzyyiZ/AHPNbT+vusUDqs8666zm5JNPbs4555zmyCOPbO64446pzukh0vG+K664Yl67azsECBBYKAHn6YVqDjtDYF0CAuS6uLx4WQScmATI0n1VgCwtrHwCBGoWcJ6uuXXVrXYBAbL2Fh5p/cZ8Yvrf//3f5qMf/Whz3XXXNXfddVdz3333rfSCfffdtznggAOal7/85c1BBx3U/OQDYKS9ZHPVzgPk61//+uaoo45qbr/99u1GILdt29Z86UtfakeB4+933333yob33HPP5lnPelZzzDHHNEcccUTz8z//85vbKe8mQIDAkgiM+Ty9JE1kNwlMFBAgdY4qBcZ6Yrrzzjub008/vfnMZz7TRDj5rd/6reaBBx5oPv/5zzeHH3548/3vf7/58pe/3Pz4xz9u/uzP/qy5+OKLm1122aXKPlC6Uh/60Idaw9e+9rXN+eef3xx//PHNV7/61Ta4R0iPn0cffbR53ete11x77bXN//t//6953vOe1zz5yU9uA/7v/M7vNLvvvnvzhS98oQ35Bx54YPP2t7+9bTM/BAgQqF1grOfp2ttV/cYhIECOo51HV8sxnpi++c1vroSYU045pTn33HObnXbaqeneA/mf//mfbeC5/vrrm5e85CXNVVdd1TzxiU9szjzzzOaSSy5p78uL+/O6P5dddllz2mmnNe94xzuaU089tS335ptvXhWY0nvS6FwE1Cg3ftLv8nsxIzzF3yPwxu+f//znt/cSxk/8d4Tg/KdvmzGq97KXvaw55JBDtrun8JZbbmlOOOGE5qd/+qdX7ef3vve9tq6xja9//evb1TX2o2/7+Qs/97nPNccee2xr8ZrXvKa1+dd//deV98VIcNwjeemllzYvetGLmr/5m79pYgS4ew/k448/3rzzne9sw+NTnvKUNmw+97nPXdlUhP0Iq+9+97tXwn+U89KXvrStWz5qmSxOOumk5jd/8zfbCwS33nprs+OOOzZ/8Ad/0O7Pc57znJWyI7imezf33nvv3rZ85JFHmuOOO6656aabmvw16b0Rgq+55ppm5513Xin33//939u+9ZWvfGXViGz0gehv733ve9vR8Xe9613t/++zzz7tfpxxxhnNL/zCL2zXHhHM472f/exn27D9q7/6q80f//Eft+6/8iu/svL6VP977rlnVRm77rpr27fimPjt3/7tVX9LfeFjH/tY841vfKN57LHHJpbf14dTYX33tm6kb0Z5UcfLL7+8NY/+GcdB9KG41zav77QP9uhbV199dXusx8h3XMSICxThfOihh7YXOFLbrlVWfhz3lRkXRv7yL/+yOfroo9ttdD8Huvdfx6j8X//1X7f/O+yww1b6T95+sZ/R73/5l3951a7913/9V7ud+OzoO05n7Sup0Pg8jGMv2j8+Q7vWk/pUvlPpuNhjjz3afryeY2JaG9b89zGep2tuT3Ubl4AAOa72Hk1tx3Zi+uEPf9h+KYyQF+ExwsrP/MzPtO3dt4jOd7/73XYaa4SLCIwRRuILVASiCGLvec972lCZfuJLY4SV+IJ9ww03NM985jM3HSCjzAg6MTr6whe+sC1/t912GyxApvI/8IEPrAo+EYjiy+6NN97YTh/93d/93eYJT3hCW9X/+Z//af7pn/6peepTnzo1QH7rW99qv8jG9NU//dM/bb+ERhBOYSq+/L7qVa9qfu3Xfq15//vf3/5//PQFjfwL9Ste8Yo2UMY+xRf8CNgRtPbaa6/m93//99vfR3iN4BVfVuNvaRQ5fdmNkBQjzRGco37f/va3m09+8pNtOHvb297W7ncKKlFGfHH+0Y9+1F5YSIE/tX3+BXqWABl1Ofvss9vwGj95eIgAFlN5Y7T1H//xH9uQ+4xnPKMNA7EAUYTcqE8ExPiJst73vve1we+///u/278/7WlPayKgxn7FF/YI1jEdO37Svv7iL/7iykhuBPCvfe1rbZh9+tOfviqg5xddYtT413/915s4lmJ/wu8FL3hB23bxvvgZKkBO6puxjdh29JsvfvGLrVNcTIhZBJ/61Kfa4yOv71of6A8//HBz4okntv4R0KOsqNsnPvGJNiS/4Q1vaI/hOP7TNPcI0/E5EIE76v5TP/VT7SYOPvjgto/ff//97QWTv//7v185dqLMT3/60829997bzn6Idk+fPZO8oi3is+bf/u3fegPk/2/vzEO1qN44fiIqzcz2wszSpEgrKVvIMhdITFMjrFyKsoUWi9S2P6IwzS0q2ndbKDJLgoqkjcpMo4USQ8sW0BbN0LAM2/HH5/x6rueO877vvHfee995Z74HRL135sw53+eZOed7no2x05irHSjZXJkPpJc5hASyWl2hP75/fAuYFzgfeeSR/hsX6hbfAsbBgRANQv/66697Ag6uNOZLP+3atYslkOXeicIsyjETLdo6XWRZa+75Q0AEMn8y1Yyc87F9LNpFaWwwicH79ttv/QZ50KBBTVMvlYXVNndsMtnUb9iwwRNJTvghXVgVoiSCDbyRm7QWyIULF/pNJISFTSnNrFr8O60F8plnnnFXXXWVW79+fTMCaUQZYoV1JnThrfT8avQJiySEHlKGpcVaqSysRn5wcZ0/f74nLRwEsNFns4qMIEa0kFhiVZw1a5bX+ZDsIVdkjBWad2Hu3Ln+kAGShEWqc+fOTXhzWACBxNoTPTygD0hB+/btPXk1F91SFkishLjzmhUwSiAZLwRl+vTp/jrGDaGCdIJXOB8supAFGvPv37+//3dIFsL5lLL4hQTd5MHP0D0somAMNhYTDFmYPHmytwJCINFTWq0IZCndNGsvJA8c+GNkbN68eW7ixInN5FdOH6dNm+Z1L9SDkDTRL7LkECX6nvOzqFUZonj99de7O++807+v6JxZv41YYvFHV/g2lMIrxJZr4iyQHCCsW7fOHyyBuTVkxrNffvllf6CANda+E9XqCiQVzwUOCkJd5Bl4J/DO4vaP3oWHaXHeFTa+lrwT1XxT8nZt0dbpvMlP8yk2AiKQxZZ/bmdftIUpjnyYcEsRSCMy4QbONp3mpmp9sGmaOnWq31SaRSANgTzttNP8hp1xs5nGCkWrROCSurBicYMMQ57YaEJmjPhgKYQczJw505OWsFV6ftIXJnT7ZONvFj/uL0Ug7dlsbBkrm+MxY8Z4TMK4ShsDlpKxY8f6eFazCod6EOLKPRAALFtca3IMN7xYF7G+cnjQu3dv/xjbZLOBxjqL5a8cgTTLGvhDzNncxxHI0MoanQ8ukOa6CMHDYhq6UNr1Nh8Ir5G8ci6jUdx//PFH76pteEddJZO6Ydt4krqwltNNiBGWeNw3wTk83AgJr3kNlNJH5obucCiEvHF5DtuUKVO8HkKcQwuf4RdHIImvxi2ZAw4OqbCIh80OhIzQ444dR7gXLFjgSe3w4cO9C3z4LHs+B1X//POPw8rPwQcHDjTTeSzXED+aEchqdcUOknCFxsJoRJ0+OXRCDoyBA7PQbbhaAlnpnUj6TcnjdUVbp/MoQ82puAiIQBZX9rmeedEWJtvcIdSQAPD/UgTSksCwgcRNsGPHjs42gSR4wTqHhcHIEBttSAnxPdZvS2Igsa4RL8fmnWeb9Yw+KxG4pASSTR7WLOIPIUu4exrxeemll/xGGKsS14SZaCs9P+lLs3nzZgdJYvMbjSktRSDZLI8aNcpt2rTJWwhpkGDc5CBIbNzDBqEAQ2SCzHExtA04LodYTqJZdtn447psVriQQEJGcX/G+mIWN9MHLE/IOsQxztqCTmH1Raa4Jkfrj9rmO0qqmReEEJdmnsM4cU/EQom7I//HYhxtpsNYpTj0KEUgIdnMgbnFkVGsYpAuXCohyYzdkhtViuOtlkCW000IHQc1cYcbPCc631L6aDgQ72rvdhLdLUcg7b1BT+J0iwRd6BYunugv8osSSPuWcBiBzNCVOAKJGz2HGLfcckszjwr6xZ0ZfLCEGoHk3ahWV2xsWPmJpU3aqiWQld6JpM/N43VFW6fzKEPNqbgIiEAWV/a5nnnRFiazFBGDF7VOxBFIs2awoQ5dLG2DxybQ3FiNROBKGLpiWr/lFClu823Xs4FkI0iCF2uVCFwSAmnxVbi/sdkkNikkPsRqQZCwSrJhx1JjCWAqPb+al8asuVFrWykCadanPn36+A04MYGMk/IecRt2xmKEI2qB45lR6yrXR58dksDZs2d7AofrLG6duKsyB+4hLnHGjBllCSSWFggvlicsOjw/jkDys1KEMNRVYvaQDYTaXHqj+BPXaXG7jJlyKbglhjGQ3GMxk8SGYrG0mEZcgXFfZDwQSGu4UHKggi6V0+E4fYDU8w7SooS2km7a/PEKINYz2ixGkZjPqItpeG0pHaukv+UIJHJjfKXIbfQAADf6KIEEF/C+6667vAs1sipFIMGRgx4OmfjumMUZneWAAiumEUhifavVFchrVD8r4cPvqyGQSd6JJM/M6zVFW6fzKkfNq5gIiEAWU+65n3URFyY2Z5ZlE6uDJSKJI5CWPAJFYCMaZqaMZluFRLDpZpNtMWjcR79s7HEBi2bOtEQTcZtvNm0rV670zyWrZBh7VonAVSKQbEzpjyQzEGA2qRDfkEAy9tdee82X38DiFNeSZGGt9BIZWcAdDmsJJT/iSBw/s4QnjIvNMi625mKXhECaRS/MwhpNhlOJQGJxZnNPQhSsmhBBNvhgCGmIEvGoBRKSie7QDxbQOL2zLKxxLrmmU7apr4ZADhs2zJMBLIeMOZqF1WQFqcHihHUrTGSDyyREhUQ6uLLuueeesUTByAPxxiS0CdvatWt9YqZSBDKJbiY5lOGZodt5nB7Wk0ByiGUHBCGBxBoK2cddnW8VLqjlCCSuy7iRkiwHfeE9wvo5cuRI/06H2ZqrIZCmK1jbW5tAJnknKn1H8vz7Iq7TeZan5lYsBEQgiyXvwsy2iAtTWDaCzRokBLdGswRB9iBGbO7Y2JA05cYbb/Rui2Ezd9hevXr5+DM2xFijohaPNDGQlCTA2kXSDUiHbQbTEkhcQLFMEOvH/M2iGiWQzBdrDq5rWO8s2yWYJM3CmuRlssQnXIuLHVhiWWSc/BtLCqQRcrFkyRJ/DTGaWES5rpwLq1l8kGvUhTWupAljMCtSnAsr8iV5C0QRCyKHAowHUkm8WpSIhwSSWpfMhwMGLJnoSykCySFHtKwDYzO3XyMgSVxYzSW3kgsr7wbzI/aP5FAQEso9QGiID+T/ZNsMW61jIJPoplmU41x8k+ibXWMlZsgs2lYurBA89JWyGFEXVnSUd5B52YFVnLUzarENDxy++uor/72y+MuQQCZxYY3qCu8eettaLqxJ34lq5Jq3a4u4TudNhppPcREQgSyu7HM986IuTGyUSfrAH1w1SzUIEySC7J7RODkjJhAYrHkQCLI/WqZU6zMNgcSqZptFK3Oxzz77pIqBxHqEtYL4Kkgh/ZUikCHZDksPVCKwLXlpiOkjlgtiVKpRe45xgKlltrREKJWS6DBfi3s1TIlTDeNVea65AFJbkM00luOoFZE4NhL+9OvXz2eeJOEJ/UCuShFIfofLKISMcZBEhVaOQKJXkINQ9yxBCq6jljglaWIUizMtl0THYvSWL1/uCSMWQ0hIaDE0+VjZGuLXahEDmVQ3rUQFhytRfKrRPbIyY63jkCQuiQ7yx7MAGXHQYq0WSXRIrmPyMxIOMYZUQjD5d5gxuJQLKzK18fDt4WCL8kPIDvlE68VWqyvmMh6XRId3Bb3A9RmCifysJXFhreadqEauebu2qOt03uSo+RQTARHIYso997Mu+sIEQaKcAlYtXCFx7cPtDgsR8VOHH354s4LfUYVgs8fmEtdWy+RI7cewpSWQVrsSi4Sl/q9E4Mq5sOIGSiZFrHmW9bQUgbTyGFi5rKQFc6v0/Ja+OMScQlyIJ+UPro4kKmLzyt/IJCwVYM9JUsYDcm9WP9twUwIhLAMRlvHgeWZNjhJISnVgvUVvrIYkFmIrOB+XRKdUDclyBJLEQMyN+dPCMh4hYUtSmgGXSKvVWI5AQgaIqQMLSBUkCwsksYZhnU4S7mB5h/RzIFELAplUN60+K2Sc+GTi+oxkG0ZY85AR9UdLtbBsSbTkBsmasDJD2KNu6eUIZNIyHuaCzdiMbOEOzfcjzN6axAJpsd3gAhmGWEMU497TanWlHNYcshAjyXcymg03CYGs5p1o6TclD/cVfZ3Ogww1h+IiIAJZXNnneuZamLaKt1QW1nIKYNYgkpLElVzg3rQEkj4sThCXTTaXkBYsCxCgIUOG+MLcYSMzJpsziAcugWHmUeLecLnEcmEp+eMIpG00sUjNmTPHDR06tOkRrUUgwzlUE58W1nvEsjNgwADvHoqLImSOeDAIXpcuXfwjbFNupIx7cGO04uiWIAcLdEiYsVgaqTRXP5IbWbmPOBwNKyzVyMqsvjbXcgQS92hqBxJ7SIkGmw9xotRetPIVSYrDh0TU5h9NogMRgbgzZiPclHeBSEHmo9iiG7jtvvjii/5vS4rT0jqQSXUT7CDvECWInhW3Z6z8nNhiMMMF3WKcS73HFleLVRMrH1lsIYHEuEKeorUvQ/2JK+PB763eI7hE+8TjIVpz0vBCl9BTsrRaS0IgudbceikzEy0hw++tjEe1usK9FgvOvLAyYj2nlu7bb7/tY1xx5eZwJ2xJCGQ170SuF+IKk9M6XWTpa+6NjoAIZI0lSGIATrlZ6KO19OIeRbwIMU+ceLK54WSeDTQuXtHEJDUeaq6708K0VbwtIZBWsBsyEdZ+DJWmFgSS5xCjiZWHP6NHj/b6zwasUjPLUEiaoslZosQHKwibXDadbEzNnc6elTUCybiwiOFKyWaW7wv/J24Pd0CSjJjLa0gAyEBLEXQsk2DJt4TEK8R8hjXt4kpxkOAIOVBD09xgyxFIvmG4TIe1LhlLOQKJqyv1ECHwfCuJS8RFNjofkwsWOTbuWNUZM+SJQ4TofEwX4pLoxD0DqxaxcLhc0i+uxBBGi/sFB9wRsVKXqmtoYyxXB5JrKulm6CZp6wLeAxyYQMCQOV4EF154YeK1AaslSY14h9EdDmqoMUncM4cPUff1chZIm6f1CSYrVqzwngxgCxlHB/i/NSNbcUl/khJIy7QLAbbSQuXe06S6YmOMrsHoAO8PFnzW42hLQiCreScqfefy/Hut03mWruaWdwREIGssYRYXNra4gnFCG3V/CR+HNQVXJDZQbB5wxcIiw0kzm2hOmcNC0jUeaq6708KUTrwWL4flKhpLl67n9HdXyjSa/gmN20M5F84szKqcBS8L49MYhIAQaDsEtE63HdZ6khCoNQIikDVE1OI1yOTIKSbZFbHgkDo+2iyFPFkow1iXMLlHtAB5DYea+660MKUTMbqLpQ73VTIfZqmJQJaWhghkljRVYxECQqAcAlqnpR9CoHEREIGsoewsqxuuWCeffLJ3xyLmIy6bntV4i/u9bQIpdXD33XeXTXZSw+HnqistTNWLk6QixF7hWkg8E7XyLDlJ9b213h0ikCKQradd6lkICIG2QkDrdFshrecIgdojIAJZI0yJ5SI7HBtu4jTI7kgGvU2bNnkXQNxTw0bcDUkFSlkoazSswnajhal60aOrxEYR28QBCAcfxEupNQ4CskA2jqw0UiFQdAS0ThddAzT/RkZABLJG0ourYUadLWrtRZPpQDZJ0kCGS5JJUCeOYs8kOVASndoIRAtTbXBUL0JACAgBISAEWgMBrdOtgar6FAJtg4AIZI1wfvDBB33WwalTpzbFjJE2njpj0VpSltGQTIGkDafAOGn1KXxu6eyVRCedYLQwpcNPdwsBISAEhIAQaE0EtE63JrrqWwi0LgIikDXAl4Q4xDtSrD0szGw/Jw05bq2kh6cZgaR0BxbHsNZUWFA7JKM1GGahutDCVChxa7JCQAgIASHQYAhonW4wgWm4QiBAQASyBupglkZqYVkxbuuWOMcrr7yyWTH2kEDG1Yq0Omxh/bEaDLNQXWhhKpS4NVkhIASEgBBoMAS0TjeYwDRcISACWVsdoBg51sJyDUsj8Y6QTJKVjB8/3kE8sVhSEDtsRjDJiknBc0qCqFWHgBacS2uHAAAObElEQVSm6vDS1UJACAgBISAE2hIBrdNtibaeJQRqi4AskCnxhOSNHTvWrVq1yg0ZMsS1a9dumx4//fRTt2jRombxkVglsVZCKkeMGNHsno0bN/ryH2vXrhWBbKF8tDC1EDjdJgSEgBAQAkKgDRDQOt0GIOsRQqCVEBCBTAksJQ9InjN69Gh33333uR133HGbHq0+ZM+ePX1Jj/33399bHiGJV1999TZ1IsnGOm7cOB8fGXWJTTncwtyuhakwotZEhYAQEAJCoAER0DrdgELTkIXAfwiIQKZQhb/++stNmDDBPfvss+6BBx5w55xzTmxvP//8szv33HN9tlW7jkLtZGjdsGGDu+OOO5rcWC2JDsTx1ltv9eRUrXoEtDBVj5nuEAJCoHoEvvvuO0fWbL7zTz31lHvvvffcdddd504//XQdAFYPp+4oEAJapwskbE01dwiIQKYQqVkKKb9hlsVS3VGUnU3FmDFj3KOPPup23nlnRxbWa665xq1fv94NHDjQ7bfffk1lPLBoUhqkU6dOKUZY3Fu1MBVX9pq5EGhLBEQg2xJtPStPCGidzpM0NZeiISACmULiRgohgfy7XDOyyTWWTId/L1261N9LjCQbEZLsnH/++b4sSIcOHVKMrti3amEqtvw1eyHQVghECSTlnCZPniwLZFsJQM9pWAS0Tjes6DRwIeBEIKUEuURAC1MuxapJCYHMIWBJz7755ht/OLh69Wofw05IAyELakJACMQjoHVamiEEGhcBEcjGlZ1GXgYBLUxSDyGwFYH333/fx2Gfcsop25Aas6BxdbRsUNRDokePHj5ee9KkSa5bt25ND7A+PvroI3fwwQf7WMATTjihmQjC+rdx1xD//dxzz7nHH3/ckbl6++23d8cdd5xPNDZ48GA77fR94rXx0EMPuTlz5rjPPvvMPfzww/5vEo8Rj8g9u+++e7Pn//vvv77/Rx55xOERwv9JbAbRi3p8GF6QwrARZnDssce6G264wR1//PH+V1u2bHGXXnqpf/7zzz/v1qxZ4/u86KKL3LXXXis1FAJCoAQCWqelGkKgcREQgWxc2WnkIpDSASGQCIFqCSSkCCIHUfr99999jHbXrl3d559/7uirS5cunoiddNJJ/vlGIL/++mv3999/u5tuumkb8hSSsiiBJAENoQA8s3v37m7AgAG+33feecf99NNPjlq7kML/FixPIIkR79u3r3vllVfcMccc4w455BD34YcfOkgs44VUQnhpv/76qx8PP7P+yZi9ePFiT/wgnfxujz328NfbWPfee29PYmkQzmXLlnlye9BBB/lM2kcddZT/3axZs9zHH3/sx8+zzjzzTD+fM844I5F8dJEQKCICIpBFlLrmnBcERCDzIknNoxkCWpikEEJgKwLVEsgPPvjAx2LTIGr9+/f3/w6J5WGHHeYoY9S5c+cmAklyMAjkgQce2JQszEYB6SOzdPv27X25o9BKafHkI0eOdPfee68nqDQI6fjx4/3fWBuHDh3qf27XYxGcPn26v4Z33rJY0wdJyyB2/JxM15BQLJnMB2IYJZbh9aXwYv4333yz/wNJ5m81ISAEWoaA1umW4aa7hEAWEBCBzIIUNIaaI6CFqeaQqsMGRqBaAom17rbbbvOEL+qGaeWLyCb95JNP+nJEZoGkxi3WxVdffdXHA/bu3dujZqWMIJh//PGHt2Qagfzhhx/c2LFj3apVq7xVz8iqwW11dCmLYbV2jUDiJhqtv/vll1/6/nCBxWV1p5128tmvGWOca61dj4WRkkyHHnpokwUyzuX3hRde8BZL3FYV49jAL4WGXncEtE7XXQQagBBoMQIikC2GTjdmGQEtTFmWjsbW1ghUQyB32203b9HDVRNCd+KJJ24zXIjZ2Wef7a644gp3zz33NCOQkLfLL7/c3X777Z5c0hYuXOj/ff3117s33njDu40amXvrrbf87/r06eMJKc8PG8Ry1KhR3mpJjCEk1QjkvHnz3FlnndXsegjuJZdc4p/D+Dt27OhjEomPjOvfYhgpxQTpHTFiREkCCclkDswtjly3tVz1PCHQyAhonW5k6WnsRUdABLLoGpDT+WthyqlgNa0WIVAqKUzYGclhSKKzww47eIvdpk2b3Pz58328X7QZ6cNCRzKbdevWeasc5G727NmewHEfv4P4TZs2zWG5I85wxowZzQikWfSIYyTxjsU52jP/+ecf9+677/pYTCOdFgNZiuBedtll3lWV+eAyC0ElHpGfRfvnObi3Tp06tcmiGhcDyXUWA0oCHSywcdi0SEC6SQgUEAGt0wUUuqacGwREIHMjSk0kREALk/RBCGxFoBQh4gpcSnE53XfffasmkMOGDfOk7Pvvv28ikI899piPSyQBDla9vfbay2eAJVZy5syZ7uKLL44lkJXkFSbesSyscS6p9NNSAmkWzUqEe9CgQT6u0lx0K41dvxcCQmBbBLROSyuEQOMiIALZuLLTyMsgoIVJ6iEEtiWQScp4JHFhxfJ33nnnxbqwPvHEE+7NN9/0RJFMrZTTwCUWUjl8+HCfnCfOhdXIaJyFMCpLc2HFwhjNdLp582ZfQgOrZRIXVnN5xdpayYX1zz//dMxvypQp7uijj/YWUcvcKn0TAkKgOgS0TleHl64WAllCQAQyS9LQWGqGgBammkGpjnKAQDUxkAcccIBPnJMkiQ5JZEgmEybRgWBt3LjRxyb269fPkThnwYIF3hqJlTNKIFevXu2vbdeunb8GN9hKzQgkpT34d0g6LSkOsY9z5871XSVJooMl1hL/lMOLuUGely9fHpuUp9LY9XshIAT+j4DWaWmCEGhcBEQgG1d2GnkZBLQwST2EwFYEqiWQScp4UHeRpDTEAUYJJHGHEyZMcEuWLPExlSTiobQGNRKjBDIsjUFSHkpvdOjQwQ+e30ECKbFBPUZiKinBYQSSxDi4kp566qn++rCMR5jkJkkZj4kTJ/r4TWI2y+FFHOS4ceP82Cxrq3RNCAiB6hHQOl09ZrpDCGQFARHIrEhC46gpAlqYagqnOmtwBKolkGG9R5LXDBw40HXt2rUpiQx1GkPiFiWQnTp18u6jWOp22WUX7/ZJkp1ffvllGwIJtJT5IHMrMYiQwr59+/rkN8uWLfPZYHGDxSJqGVeNQPbq1cvHXzI+akIuXrzYu8eSIfb+++9vci+FuGJVJYlP9+7d3YABAzxRtOuj9SdLxYwyTjLKMt+QcDa4emj4QqAuCGidrgvseqgQqAkCIpA1gVGdZA0BLUxZk4jGU08EqiWQNtalS5d6a9+iRYs8aerRo4e39k2aNMl169ataUpxBHLlypVu9OjRbtddd21yTS1FIM16SAKep59+2q1YscL99ttv/nmDBw/2brJHHHFE0/OMQOJyumbNGjdnzhz3xRdf+LhELJwXXHBBkxXTbqIEB+VHiMv85JNPHP/v2bOnL/ERvb5cEp1yz6injPVsIdBoCGidbjSJabxCYCsCIpDShlwioIUpl2LVpISAR6BcEh1BJASEQGMgoHW6MeSkUQqBOAREIKUXuURAC1MuxapJCQERSOmAEMgJAlqncyJITaOQCIhAFlLs+Z+0Fqb8y1gzLC4CskAWV/aaeX4Q0DqdH1lqJsVDQASyeDIvxIy1MBVCzJpkQREQgSyo4DXtXCGgdTpX4tRkCoaACGTBBF6U6WphKoqkNU8hIASEgBBoRAS0Tjei1DRmIfB/BEQgpQm5REALUy7FqkkJASEgBIRAThDQOp0TQWoahURABLKQYs//pLUw5V/GmqEQEAJCQAg0LgJapxtXdhq5EBCBlA7kEgEtTLkUqyYlBISAEBACOUFA63ROBKlpFBIBEchCij3/k9bClH8Za4ZCQAgIASHQuAhonW5c2WnkQkAEUjqQSwS0MOVSrJqUEBACQkAI5AQBrdM5EWSDTuM/AtSgo8/MsLfbzjm3ZcuWLZkZkQYiBNIgoIUpDXq6VwgIASEgBIRA6yKgdbp18VXv5RGQ/qXTEFkg0+GnuzOKgD4MGRWMhiUEhIAQEAJC4L8yADJcSBXqhYD2iemQF4FMh5/uzigC+jBkVDAalhAQAkJACAgBEUjpQJ0R0D4xnQBEINPhp7szioA+DBkVjIYlBISAEBACQkAEUjpQZwS0T0wnABHIdPjp7owioA9DRgWjYQkBISAEhIAQEIGUDtQZAe0T0wlABDIdfro7owjow5BRwWhYQkAICAEhIAREIKUDdUZA+8R0AhCBTIef7s4oAvowZFQwGpYQEAJCQAgIARFI6UCdEdA+MZ0ARCDT4ae7M4qAPgwZFYyGJQSEgBAQAkJABFI6UGcEtE9MJwARyHT46e6MIqAPQ0YFo2EJASEgBISAEBCBlA7UGQHtE9MJQAQyHX66O6MI6MOQUcFoWEJACAgBISAERCClA3VGQPvEdAIQgUyHn+7OKAL6MGRUMBqWEBACQkAICAERSOlAnRHQPjGdAEQg0+GnuzOKgD4MGRWMhiUEhIAQEAJCQARSOlBnBLRPTCcAEch0+OnujCKgD0NGBaNhCQEhIASEgBAQgZQO1BkB7RPTCUAEMh1+ujujCOjDkFHBaFhCQAgIASEgBEQgpQN1RkD7xHQCEIFMh5/uzigC+jBkVDAalhAQAkJACAgBEUjpQJ0R0D4xnQBEINPhp7szioA+DBkVjIYlBISAEBACQkAEUjpQZwS0T0wnABHIdPjp7owioA9DRgWjYQkBISAEhIAQEIGUDtQZAe0T0wlABDIdfro7owjow5BRwWhYQkAICAEhIAREIKUDdUZA+8R0AhCBTIef7s4oAvowZFQwGpYQEAJCQAgIARFI6UCdEdA+MZ0AmhHIdF3pbiEgBISAEBACQkAICAEhIASEgBAoAALbbVeASWqKQkAICAEhIASEgBAQAkJACAgBIVADBP4HJjVCp+rtrhEAAAAASUVORK5CYII=;" vertex="1" parent="1">
          <mxGeometry x="620" y="822.5" width="1183.5" height="965" as="geometry" />
        </mxCell>
        <mxCell id="hStPTp5JlyxzYv1hSWJD-4" style="edgeStyle=orthogonalEdgeStyle;rounded=0;orthogonalLoop=1;jettySize=auto;html=1;exitX=0;exitY=0.25;exitDx=0;exitDy=0;entryX=0;entryY=0.25;entryDx=0;entryDy=0;" edge="1" parent="1" target="hStPTp5JlyxzYv1hSWJD-1">
          <mxGeometry relative="1" as="geometry">
            <mxPoint x="630" y="1274.774193548387" as="sourcePoint" />
          </mxGeometry>
        </mxCell>
        <mxCell id="hStPTp5JlyxzYv1hSWJD-5" style="edgeStyle=orthogonalEdgeStyle;rounded=0;orthogonalLoop=1;jettySize=auto;html=1;exitX=0;exitY=0.75;exitDx=0;exitDy=0;entryX=0;entryY=0.75;entryDx=0;entryDy=0;" edge="1" parent="1" target="hStPTp5JlyxzYv1hSWJD-1">
          <mxGeometry relative="1" as="geometry">
            <mxPoint x="630" y="1305.0967741935483" as="sourcePoint" />
          </mxGeometry>
        </mxCell>
        <mxCell id="hStPTp5JlyxzYv1hSWJD-8" style="edgeStyle=orthogonalEdgeStyle;rounded=0;orthogonalLoop=1;jettySize=auto;html=1;exitX=1;exitY=0.25;exitDx=0;exitDy=0;entryX=0;entryY=0.25;entryDx=0;entryDy=0;" edge="1" parent="1" source="hStPTp5JlyxzYv1hSWJD-1" target="hStPTp5JlyxzYv1hSWJD-2">
          <mxGeometry relative="1" as="geometry" />
        </mxCell>
        <mxCell id="hStPTp5JlyxzYv1hSWJD-1" value="&lt;span style=&quot;font-size: 14px;&quot;&gt;&lt;br&gt;Составление прайс-листа&lt;/span&gt;" style="html=1;align=center;verticalAlign=top;rounded=1;absoluteArcSize=1;arcSize=10;dashed=0;whiteSpace=wrap;" vertex="1" parent="1">
          <mxGeometry x="770" y="1260" width="180" height="60" as="geometry" />
        </mxCell>
        <mxCell id="hStPTp5JlyxzYv1hSWJD-10" style="edgeStyle=orthogonalEdgeStyle;rounded=0;orthogonalLoop=1;jettySize=auto;html=1;exitX=0;exitY=0.75;exitDx=0;exitDy=0;entryX=0;entryY=0.75;entryDx=0;entryDy=0;" edge="1" parent="1" target="hStPTp5JlyxzYv1hSWJD-2">
          <mxGeometry relative="1" as="geometry">
            <mxPoint x="1020" y="1305.0967741935483" as="sourcePoint" />
          </mxGeometry>
        </mxCell>
        <mxCell id="hStPTp5JlyxzYv1hSWJD-12" style="edgeStyle=orthogonalEdgeStyle;rounded=0;orthogonalLoop=1;jettySize=auto;html=1;exitX=0.25;exitY=1;exitDx=0;exitDy=0;entryX=0.25;entryY=1;entryDx=0;entryDy=0;" edge="1" parent="1" target="hStPTp5JlyxzYv1hSWJD-2">
          <mxGeometry relative="1" as="geometry">
            <mxPoint x="1195.225806451613" y="1420" as="sourcePoint" />
          </mxGeometry>
        </mxCell>
        <mxCell id="hStPTp5JlyxzYv1hSWJD-14" style="edgeStyle=orthogonalEdgeStyle;rounded=0;orthogonalLoop=1;jettySize=auto;html=1;exitX=1;exitY=0.25;exitDx=0;exitDy=0;entryX=0;entryY=0.25;entryDx=0;entryDy=0;" edge="1" parent="1" source="hStPTp5JlyxzYv1hSWJD-2" target="hStPTp5JlyxzYv1hSWJD-3">
          <mxGeometry relative="1" as="geometry" />
        </mxCell>
        <mxCell id="hStPTp5JlyxzYv1hSWJD-2" value="&lt;span style=&quot;font-size: 14px;&quot;&gt;Установление скидок и акций&lt;/span&gt;" style="html=1;align=center;verticalAlign=top;rounded=1;absoluteArcSize=1;arcSize=10;dashed=0;whiteSpace=wrap;" vertex="1" parent="1">
          <mxGeometry x="1150" y="1260" width="180" height="60" as="geometry" />
        </mxCell>
        <mxCell id="hStPTp5JlyxzYv1hSWJD-16" style="edgeStyle=orthogonalEdgeStyle;rounded=0;orthogonalLoop=1;jettySize=auto;html=1;exitX=0.5;exitY=1;exitDx=0;exitDy=0;entryX=0.5;entryY=1;entryDx=0;entryDy=0;" edge="1" parent="1" target="hStPTp5JlyxzYv1hSWJD-3">
          <mxGeometry relative="1" as="geometry">
            <mxPoint x="1559.741935483871" y="1420" as="sourcePoint" />
          </mxGeometry>
        </mxCell>
        <mxCell id="hStPTp5JlyxzYv1hSWJD-18" style="edgeStyle=orthogonalEdgeStyle;rounded=0;orthogonalLoop=1;jettySize=auto;html=1;exitX=1;exitY=0.5;exitDx=0;exitDy=0;" edge="1" parent="1" source="hStPTp5JlyxzYv1hSWJD-3">
          <mxGeometry relative="1" as="geometry">
            <mxPoint x="1790" y="1290" as="targetPoint" />
          </mxGeometry>
        </mxCell>
        <mxCell id="hStPTp5JlyxzYv1hSWJD-3" value="&lt;span style=&quot;font-size: 14px;&quot;&gt;Экспорт прайс-листа&lt;/span&gt;" style="html=1;align=center;verticalAlign=top;rounded=1;absoluteArcSize=1;arcSize=10;dashed=0;whiteSpace=wrap;" vertex="1" parent="1">
          <mxGeometry x="1470" y="1260" width="180" height="60" as="geometry" />
        </mxCell>
        <mxCell id="hStPTp5JlyxzYv1hSWJD-6" value="&lt;font style=&quot;font-size: 10px;&quot;&gt;Данные о номерах&lt;/font&gt;" style="text;html=1;strokeColor=none;fillColor=none;align=center;verticalAlign=middle;whiteSpace=wrap;rounded=0;rotation=0;" vertex="1" parent="1">
          <mxGeometry x="640" y="1250" width="110" height="30" as="geometry" />
        </mxCell>
        <mxCell id="hStPTp5JlyxzYv1hSWJD-7" value="&lt;font style=&quot;font-size: 10px;&quot;&gt;Данные о гостинице&lt;/font&gt;" style="text;html=1;strokeColor=none;fillColor=none;align=center;verticalAlign=middle;whiteSpace=wrap;rounded=0;rotation=0;" vertex="1" parent="1">
          <mxGeometry x="640" y="1280" width="110" height="30" as="geometry" />
        </mxCell>
        <mxCell id="hStPTp5JlyxzYv1hSWJD-9" value="&lt;font style=&quot;font-size: 10px;&quot;&gt;Прайс-лист на номера&lt;/font&gt;" style="text;html=1;strokeColor=none;fillColor=none;align=center;verticalAlign=middle;whiteSpace=wrap;rounded=0;rotation=0;" vertex="1" parent="1">
          <mxGeometry x="990" y="1250" width="110" height="30" as="geometry" />
        </mxCell>
        <mxCell id="hStPTp5JlyxzYv1hSWJD-11" value="&lt;font style=&quot;font-size: 10px;&quot;&gt;Идентификатор&lt;br&gt;администратора&lt;br&gt;&lt;/font&gt;" style="text;html=1;strokeColor=none;fillColor=none;align=center;verticalAlign=middle;whiteSpace=wrap;rounded=0;rotation=0;" vertex="1" parent="1">
          <mxGeometry x="1020" y="1290" width="110" height="30" as="geometry" />
        </mxCell>
        <mxCell id="hStPTp5JlyxzYv1hSWJD-13" value="&lt;font style=&quot;font-size: 10px;&quot;&gt;Администратор&lt;br&gt;&lt;/font&gt;" style="text;html=1;strokeColor=none;fillColor=none;align=center;verticalAlign=middle;whiteSpace=wrap;rounded=0;rotation=-90;" vertex="1" parent="1">
          <mxGeometry x="1160" y="1360" width="60" height="30" as="geometry" />
        </mxCell>
        <mxCell id="hStPTp5JlyxzYv1hSWJD-15" value="&lt;font style=&quot;font-size: 10px;&quot;&gt;Прайс-лист на номера&lt;/font&gt;" style="text;html=1;strokeColor=none;fillColor=none;align=center;verticalAlign=middle;whiteSpace=wrap;rounded=0;rotation=0;" vertex="1" parent="1">
          <mxGeometry x="1340" y="1250" width="110" height="30" as="geometry" />
        </mxCell>
        <mxCell id="hStPTp5JlyxzYv1hSWJD-17" value="&lt;font style=&quot;font-size: 10px;&quot;&gt;Система&lt;br&gt;&lt;/font&gt;" style="text;html=1;strokeColor=none;fillColor=none;align=center;verticalAlign=middle;whiteSpace=wrap;rounded=0;rotation=-90;" vertex="1" parent="1">
          <mxGeometry x="1520" y="1360" width="60" height="30" as="geometry" />
        </mxCell>
        <mxCell id="hStPTp5JlyxzYv1hSWJD-19" value="&lt;font style=&quot;font-size: 10px;&quot;&gt;Прайс-листы на номера&lt;/font&gt;" style="text;html=1;strokeColor=none;fillColor=none;align=center;verticalAlign=middle;whiteSpace=wrap;rounded=0;rotation=0;" vertex="1" parent="1">
          <mxGeometry x="1650" y="1270" width="130" height="30" as="geometry" />
        </mxCell>
        <mxCell id="hStPTp5JlyxzYv1hSWJD-21" value="61" style="text;html=1;strokeColor=none;fillColor=none;align=center;verticalAlign=middle;whiteSpace=wrap;rounded=0;" vertex="1" parent="1">
          <mxGeometry x="930" y="1300" width="20" height="30" as="geometry" />
        </mxCell>
        <mxCell id="hStPTp5JlyxzYv1hSWJD-22" value="62" style="text;html=1;strokeColor=none;fillColor=none;align=center;verticalAlign=middle;whiteSpace=wrap;rounded=0;" vertex="1" parent="1">
          <mxGeometry x="1310" y="1300" width="20" height="30" as="geometry" />
        </mxCell>
        <mxCell id="hStPTp5JlyxzYv1hSWJD-23" value="63" style="text;html=1;strokeColor=none;fillColor=none;align=center;verticalAlign=middle;whiteSpace=wrap;rounded=0;" vertex="1" parent="1">
          <mxGeometry x="1630" y="1290" width="20" height="30" as="geometry" />
        </mxCell>
      </root>
    </mxGraphModel>
  </diagram>
  <diagram id="30CSTh-y9SVbLgZfz-_A" name="Страница — 2">
    <mxGraphModel dx="5413" dy="2800" grid="1" gridSize="10" guides="1" tooltips="1" connect="1" arrows="1" fold="1" page="1" pageScale="1" pageWidth="3300" pageHeight="2339" math="0" shadow="0">
      <root>
        <mxCell id="0" />
        <mxCell id="1" parent="0" />
      </root>
    </mxGraphModel>
  </diagram>
</mxfile>
